<?xml version="1.0" encoding="UTF-8"?>
<svg version="1.1" viewBox="0 0 1106.5 1104.7" xmlns="http://www.w3.org/2000/svg">
 <style>.st0{fill:none;stroke:#f39323;stroke-width:2;stroke-miterlimit:10}.st1{fill:#020203}.st2,.st3{stroke:#020203;stroke-width:2.7873;stroke-miterlimit:10}.st2{fill:none;stroke-linecap:round;stroke-linejoin:round}.st3{fill:#020203}.st5{stroke-linecap:round;stroke-linejoin:round}.st5,.st6,.st7,.st8,.st9{fill:none;stroke:#020203;stroke-width:1.8582;stroke-miterlimit:10}.st7,.st8,.st9{stroke-width:.9291}.st8,.st9{stroke-width:2.7873}.st9{stroke:#000;stroke-width:1.6942;stroke-linecap:round;stroke-linejoin:round}.st10,.st11,.st12,.st13,.st14,.st16,.st17,.st18{fill:none;stroke:#000;stroke-width:2.5632;stroke-miterlimit:10}.st11,.st12,.st13,.st14,.st16,.st17,.st18{stroke-width:2.6016}.st12,.st13,.st14,.st16,.st17,.st18{stroke-width:2.621}.st13,.st14,.st16,.st17,.st18{stroke-width:2.5668}.st14,.st16,.st17,.st18{stroke:#020203;stroke-width:1.7533}.st16,.st17,.st18{stroke-width:1.2434}.st17,.st18{stroke-width:.7971}.st18{stroke:#0f1919;stroke-width:.25}</style>
 <path class="st1" d="m214.25 885.09c-1.48 1.24-2.78 1.73-3.89 1.45a8.242 8.242 0 0 1-3.05-1.48c-0.92-0.71-1.78-1.33-2.56-1.88-0.79-0.55-1.6-0.47-2.44 0.23l-9.31 8.13-1.93 1.62c-0.39 0.32-1.05 0.91-1.99 1.75s-1.95 1.72-3.05 2.64l-3 2.51-2.03 1.7c-0.13 0.11-0.5 0.39-1.1 0.84-0.61 0.45-1.23 0.92-1.87 1.4s-1.26 0.95-1.87 1.4-0.97 0.73-1.1 0.84c-0.06 0.05-0.51 0.4-1.34 1.05-0.83 0.64-1.76 1.4-2.79 2.26l-3.19 2.67-2.61 2.19-1.93 1.62-2.9 2.43c-1.09 0.92-2.1 1.78-3 2.6s-1.55 1.38-1.94 1.71c-0.43 0.8-0.39 1.62 0.1 2.47s0.98 1.76 1.46 2.72c0.48 0.97 0.71 1.99 0.67 3.06-0.03 1.07-0.79 2.23-2.27 3.47-1.09 0.92-2.44 1.47-4.04 1.66s-2.91-0.33-3.94-1.55l-9.23-11.01c-0.65-0.77-1.09-1.83-1.33-3.16s-0.19-2.52 0.13-3.57c0.95-2.66 2.51-5.12 4.68-7.38 2.17-2.25 4.18-4.5 6.05-6.72 2.94-3.56 5.9-6.92 8.9-10.09s5.99-6.5 8.98-9.99c0.66-0.78 1.53-1.8 2.6-3.08s2.11-2.56 3.11-3.84c1.01-1.28 1.88-2.4 2.62-3.35s1.12-1.48 1.12-1.6l1.19-2.31c-0.28-0.2-1.64 0.36-4.09 1.7-2.44 1.34-5.45 3.09-9.01 5.25s-7.44 4.54-11.63 7.12-8.19 5.08-11.98 7.49c-3.91 2.4-7.3 4.45-10.16 6.13-2.86 1.69-4.81 2.69-5.86 3.02-1.04 0.33-2.22 0.52-3.54 0.58s-2.32-0.44-3-1.52c-0.27-0.32-0.84-0.97-1.71-1.94s-1.44-1.62-1.71-1.94c-0.43-0.52-1.05-1.29-1.86-2.31-0.8-1.03-1.26-1.6-1.37-1.73-0.75-1.02-1.41-2.05-2.01-3.09-0.59-1.04-1.02-2.07-1.29-3.11s-0.25-2.04 0.04-2.99c0.29-0.96 0.96-1.87 1.98-2.73 0.13-0.11 0.42-0.32 0.86-0.64 0.45-0.32 0.73-0.53 0.86-0.64 1.74-0.15 3.11 0.14 4.09 0.85s2.22 1.43 3.7 2.16c0.11 0.13 0.31 0.18 0.61 0.14l37.49-31.42c0.08-0.17 0.33-0.49 0.76-0.96s0.68-0.79 0.76-0.96c0.32-0.27 0.84-0.73 1.55-1.38s1.48-1.38 2.29-2.17c0.82-0.79 1.58-1.52 2.29-2.17s1.23-1.11 1.55-1.38c0.27-0.33 0.13-0.85-0.4-1.56-0.53-0.7-1.01-1.57-1.43-2.59s-0.54-2.15-0.37-3.39 1.12-2.59 2.86-4.04c1.1-0.92 2.14-1.44 3.14-1.56s1.94-0.01 2.83 0.34 1.75 0.91 2.58 1.7 1.59 1.6 2.29 2.44c0.92 1.1 1.7 2.19 2.35 3.29s1.41 2.17 2.27 3.2c0.65 0.77 1.35 1.48 2.1 2.11s1.45 1.34 2.1 2.11 1.12 1.56 1.4 2.36c0.29 0.8 0.48 1.55 0.56 2.24 0.09 0.69 0.13 1.29 0.11 1.8-0.01 0.5 0.06 0.86 0.22 1.05 0.23 0.14 0.37 0.24 0.42 0.31 1.56-0.1 2.87-0.04 3.92 0.17 1.06 0.21 2.04 0.87 2.96 1.96 0.65 0.77 1.01 1.57 1.09 2.38s0.04 1.59-0.11 2.32-0.3 1.38-0.44 1.93-0.05 1.03 0.28 1.41c0.05 0.06 0.19 0.17 0.42 0.31 0.36 0.03 0.8 0.07 1.33 0.12s1.11 0.11 1.73 0.2c0.62 0.08 1.2 0.23 1.75 0.42 0.55 0.2 0.93 0.43 1.15 0.68l9.23 11.01c0.86 0.37 1.49 0.76 1.87 1.15 0.39 0.39 0.85 0.91 1.39 1.55 1.46 1.74 2.07 3.45 1.83 5.13-0.23 1.65-1.21 3.22-2.95 4.68zm-82.82-1.65c0.11 0.13 1.32-0.45 3.64-1.74s5.23-2.93 8.71-4.92c3.49-1.99 7.32-4.22 11.51-6.68 4.18-2.47 8.17-4.85 11.95-7.14s7.1-4.36 9.94-6.2c2.85-1.84 4.69-3.11 5.53-3.81-0.27-0.32-0.82-0.82-1.66-1.49-0.83-0.67-1.75-1.3-2.74-1.9-0.99-0.59-1.95-1.05-2.88-1.37s-1.58-0.32-1.97 0.01l-12.17 10.21c-0.69 1.13-1.56 2.13-2.59 2.99l-2.8 2.35-2.9 2.43c-1.03 0.86-2.16 1.54-3.4 2.03zm24.84 24.92 39.32-32.96c0.39-0.32 0.56-0.93 0.52-1.83s-0.11-1.41-0.22-1.54l-2.97-5.9c-0.15-0.31-0.42-0.31-0.81 0.02l-0.58 0.49c-2 1.67-3.79 3.56-5.37 5.66-1.59 2.1-3.18 4.15-4.79 6.16a182.17 182.17 0 0 1-7.02 8.11 176.68 176.68 0 0 0-7.02 8.11c-1.6 1.89-3.33 4.08-5.19 6.57s-3.79 4.63-5.8 6.42zm-76.76-67.64c-2.26-0.52-4.03-1.87-5.31-4.04-0.68-1.16-1.04-2.39-1.07-3.68-0.03-1.3 0.2-2.56 0.7-3.78s1.18-2.35 2.03-3.39 1.82-1.88 2.91-2.52c2.17-1.28 4.36-1.5 6.57-0.65s3.91 2.28 5.1 4.31c1.45 2.46 1.68 4.84 0.69 7.13s-2.68 4.14-5.07 5.55c-2.11 1.23-4.29 1.59-6.55 1.07zm75.34-23.87c-1.93 0.02-3.41-0.84-4.43-2.58l-7.04-11.95-1.53-0.12a57.833 57.833 0 0 1-3.9 2.01c-0.83 0.39-1.62 0.79-2.36 1.17-0.74 0.39-1.25 0.67-1.54 0.84-0.18 0.01-0.59 0.15-1.21 0.42s-1.02 0.41-1.21 0.42l-23.85 14.06 7.49 12.71c0.43 0.72 0.6 1.48 0.51 2.26s-0.32 1.53-0.69 2.24c-0.38 0.71-0.86 1.36-1.46 1.96-0.59 0.59-1.19 1.07-1.78 1.41-1.18 0.7-2.27 0.95-3.28 0.76s-1.92-0.6-2.74-1.24a12.51 12.51 0 0 1-2.27-2.32c-0.69-0.91-1.27-1.77-1.74-2.56-0.73-1.23-1.37-2.49-1.93-3.77-0.56-1.28-1.2-2.53-1.93-3.77-0.51-0.87-1.09-1.68-1.72-2.42a18.22 18.22 0 0 1-1.72-2.42c-0.73-1.23-1.08-2.75-1.08-4.56 0.01-1.81 0.77-3.16 2.29-4.06l40.4-23.82 0.27-1.04-6.79-11.51c-0.38-0.65-0.5-1.39-0.34-2.22s0.45-1.63 0.89-2.42c0.43-0.79 0.96-1.49 1.59-2.11s1.21-1.08 1.72-1.38c1.04-0.61 2.23-0.95 3.58-1.02s2.39 0.52 3.12 1.75l21.84 37.03c0.77 1.3 0.93 2.6 0.5 3.88-0.44 1.28-1.28 2.29-2.54 3.03-1.49 0.88-3.19 1.33-5.12 1.34zm-29.82-58.04c-0.77 0.12-1.56 0.16-2.39 0.12s-1.57-0.16-2.23-0.35-1.07-0.49-1.22-0.88l-3.06-7.87-1.02-1.23c-0.14-0.13-0.45-0.46-0.93-0.99l-16.57 6.43-2.46 0.28-38.31 14.87c-0.55 0.21-1.06 0.64-1.53 1.27-0.47 0.64-0.79 1.21-0.95 1.72 0.46 1.17 0.94 2.43 1.46 3.76 0.49 1.25 0.81 2.44 0.97 3.54 0.16 1.11 0.02 2.14-0.43 3.07-0.45 0.94-1.41 1.7-2.9 2.28-1.96 0.76-3.77 0.52-5.42-0.73-1.66-1.25-2.83-2.77-3.54-4.58l-0.27-0.7c-0.06-0.16-0.16-0.66-0.31-1.5s-0.25-1.34-0.31-1.5l-0.18-0.46c-0.06-0.16-0.31-0.58-0.76-1.26-0.44-0.68-0.7-1.1-0.76-1.26l-0.09-0.23c-0.7-1.8-0.82-3.67-0.35-5.61 0.46-1.94 1.59-3.39 3.38-4.36 2.57-0.82 4.67-1.68 6.3-2.58s3.55-1.78 5.74-2.63c0.63-0.24 1.18-0.44 1.67-0.58 0.48-0.14 1.13-0.23 1.92-0.27l26.21-10.18c0.31-0.12 0.45-0.31 0.39-0.56-0.05-0.25-0.11-0.45-0.17-0.61-0.17-0.21-0.27-0.35-0.3-0.42-0.65-0.29-1.77-0.8-3.37-1.53-1.59-0.73-3.31-1.51-5.16-2.32s-3.58-1.56-5.2-2.24-2.75-1.16-3.4-1.45c-0.22-0.1-0.73-0.26-1.54-0.48-0.81-0.23-1.32-0.39-1.54-0.48l-1.69 3.83c-0.6 1.36-1.56 2.3-2.9 2.81-1.25 0.49-2.38 0.43-3.38-0.17s-1.87-1.39-2.61-2.37c-0.09-0.24-0.24-0.63-0.46-1.18-0.21-0.55-0.47-1.15-0.77-1.8s-0.55-1.25-0.77-1.8c-0.21-0.55-0.36-0.94-0.46-1.17-0.46-1.18-1.11-2.79-1.95-4.85s-1.48-4.16-1.9-6.29-0.47-4.12-0.15-5.96 1.47-3.14 3.42-3.9c1.33-0.52 2.39-0.64 3.18-0.35 0.79 0.28 1.45 0.77 1.99 1.46s1.01 1.55 1.4 2.57c0.36 0.94 0.79 1.9 1.26 2.89 0.53 1.14 1.36 2.11 2.48 2.89s2.34 1.5 3.68 2.16c1.34 0.65 2.63 1.21 3.89 1.67s2.3 0.93 3.12 1.42c0.68 0.37 1.35 0.81 2 1.32s1.28 0.97 1.88 1.36c0.61 0.4 1.25 0.66 1.93 0.8 0.69 0.14 1.5 0.03 2.44-0.34 1.65-0.64 3.02-1.85 4.13-3.63s2.13-3.44 3.07-4.98c0.13-0.14 0.35-0.54 0.68-1.21s0.7-1.4 1.11-2.19c0.42-0.79 0.81-1.51 1.19-2.15s0.63-1.04 0.76-1.17c0.97-1.46 2.04-2.75 3.22-3.89s2.03-2.57 2.53-4.29c-0.61-1.57-1.17-3.08-1.7-4.55-0.52-1.46-0.84-2.87-0.96-4.22a8.15 8.15 0 0 1 0.59-3.88c0.51-1.23 1.58-2.44 3.2-3.61 0.08-0.03 0.33-0.15 0.74-0.36 0.42-0.21 0.7-0.34 0.86-0.4 0.86-0.34 1.65-0.39 2.37-0.17s1.37 0.57 1.97 1.06 1.15 1.09 1.64 1.8c0.5 0.71 0.97 1.38 1.4 2.03l2.78 7.17 2.74 7.05c0.24 0.63 0.51 1.65 0.79 3.07s0.48 2.52 0.6 3.28c0.09 0.69 0.06 1.42-0.09 2.2s-0.1 1.48 0.14 2.11c0.43 1.1 1.25 2.06 2.48 2.89 1.22 0.83 2.1 1.91 2.61 3.25 0.43 1.1 0.77 2.2 1.02 3.32s0.59 2.23 1.02 3.32c0.73 1.88 1.52 3.69 2.38 5.43s1.65 3.55 2.38 5.43l2.05 5.29c0.36 1.85 0.44 3.64 0.26 5.38s-1.29 3-3.33 3.79c-0.32 0.09-0.86 0.21-1.63 0.33zm-31.33-20.43c0.9 0.46 1.77 0.85 2.61 1.15 0.33 0.14 0.86 0.34 1.59 0.6s1.33 0.45 1.79 0.59c0.46 0.14 0.74 0.23 0.85 0.28l9.64-3.74c0.55-0.21 0.84-0.87 0.86-1.96 0.03-1.09-0.03-2.29-0.17-3.58-0.14-1.3-0.33-2.53-0.56-3.71-0.23-1.17-0.33-1.95-0.29-2.32 0.02-0.19 0.13-0.59 0.34-1.21s0.28-1.01 0.22-1.17c0.08-0.03 0.09-0.12 0.03-0.28s-0.12-0.31-0.18-0.47c-0.33-0.86-1.17-1.62-2.51-2.27-1.33-0.65-2.47-0.8-3.41-0.43-0.55 0.21-1.54 1.14-2.98 2.78a97.98 97.98 0 0 0-4.35 5.34 96.675 96.675 0 0 0-3.85 5.42c-1.1 1.69-1.59 2.69-1.47 3 0.33 0.86 0.94 1.52 1.84 1.98zm1.33-60.53c-0.77-0.02-1.56-0.13-2.37-0.32-0.8-0.19-1.52-0.44-2.13-0.75s-0.96-0.67-1.04-1.09l-1.58-8.3-0.78-1.39a19.2 19.2 0 0 1-0.73-1.14l-17.46 3.33-2.47-0.17-40.37 7.69c-0.58 0.11-1.16 0.44-1.74 0.97-0.58 0.54-1 1.05-1.25 1.52 0.24 1.24 0.49 2.56 0.75 3.96 0.25 1.32 0.36 2.54 0.31 3.66-0.04 1.12-0.37 2.1-0.98 2.95-0.61 0.84-1.7 1.41-3.27 1.71-2.06 0.39-3.8-0.18-5.2-1.7-1.4-1.53-2.29-3.24-2.65-5.14l-0.14-0.74c-0.03-0.16-0.04-0.68-0.04-1.53 0.01-0.86 0-1.37-0.04-1.53l-0.1-0.5c-0.03-0.16-0.2-0.62-0.52-1.38-0.31-0.75-0.49-1.21-0.52-1.38l-0.05-0.25c-0.36-1.9-0.14-3.76 0.67-5.58s2.18-3.05 4.11-3.67c2.68-0.34 4.9-0.8 6.66-1.4 1.77-0.59 3.81-1.11 6.12-1.55 0.66-0.13 1.24-0.21 1.75-0.27 0.5-0.05 1.15-0.03 1.94 0.08l27.62-5.26c0.33-0.06 0.49-0.22 0.49-0.48s-0.03-0.46-0.06-0.63c-0.13-0.23-0.2-0.39-0.22-0.47-0.59-0.4-1.6-1.11-3.03-2.12s-2.98-2.08-4.66-3.22c-1.67-1.14-3.24-2.18-4.71-3.15-1.47-0.96-2.5-1.64-3.08-2.04-0.2-0.13-0.67-0.39-1.43-0.75-0.75-0.37-1.23-0.62-1.43-0.75-0.73 1.08-1.52 2.24-2.36 3.46-0.83 1.23-1.95 1.98-3.36 2.24-1.32 0.25-2.42-0.01-3.29-0.78a9.312 9.312 0 0 1-2.14-2.8c-0.05-0.25-0.13-0.66-0.24-1.24s-0.25-1.21-0.43-1.91c-0.18-0.69-0.32-1.33-0.43-1.91a310.54 310.54 0 0 0-1.28-6.37c-0.46-2.18-0.7-4.36-0.73-6.53-0.03-2.18 0.28-4.14 0.93-5.89s2.01-2.82 4.07-3.21c1.41-0.27 2.47-0.19 3.19 0.23s1.29 1.02 1.69 1.8 0.71 1.71 0.91 2.78c0.19 0.99 0.43 2.02 0.71 3.07 0.32 1.22 0.96 2.32 1.91 3.29 0.96 0.97 2.03 1.9 3.23 2.79 1.19 0.89 2.37 1.67 3.53 2.34 1.16 0.68 2.1 1.33 2.81 1.97 0.61 0.48 1.18 1.04 1.73 1.66s1.08 1.19 1.6 1.68c0.52 0.5 1.11 0.88 1.76 1.14s1.47 0.3 2.46 0.11c1.73-0.33 3.31-1.27 4.72-2.82 1.42-1.55 2.72-3 3.92-4.34 0.15-0.11 0.45-0.47 0.89-1.07s0.94-1.25 1.49-1.95 1.07-1.34 1.56-1.9 0.81-0.9 0.96-1.02c1.22-1.26 2.51-2.34 3.87-3.24 1.37-0.9 2.46-2.16 3.26-3.77-0.31-1.65-0.59-3.24-0.85-4.78-0.25-1.54-0.31-2.98-0.18-4.33s0.56-2.59 1.28-3.71c0.73-1.12 1.99-2.11 3.8-2.97 0.08-0.02 0.35-0.09 0.79-0.22 0.45-0.13 0.75-0.21 0.92-0.24 0.91-0.17 1.7-0.09 2.36 0.26 0.66 0.34 1.24 0.81 1.74 1.4s0.93 1.28 1.29 2.06c0.36 0.79 0.7 1.54 1 2.25l1.44 7.55 1.42 7.43c0.12 0.66 0.2 1.72 0.22 3.17s0.02 2.56-0.01 3.34c-0.04 0.69-0.2 1.41-0.49 2.15s-0.37 1.44-0.24 2.1c0.22 1.16 0.86 2.26 1.91 3.29 1.05 1.04 1.72 2.26 1.98 3.67 0.22 1.16 0.36 2.31 0.4 3.45 0.05 1.15 0.18 2.3 0.4 3.45 0.38 1.98 0.83 3.91 1.36 5.77 0.53 1.87 0.98 3.79 1.36 5.77l1.06 5.57c0.02 1.88-0.22 3.66-0.72 5.33-0.49 1.68-1.81 2.72-3.96 3.13-0.27 0.09-0.82 0.11-1.59 0.08zm-27.11-25.76c0.8 0.62 1.59 1.15 2.36 1.6 0.29 0.2 0.78 0.49 1.45 0.88s1.22 0.69 1.65 0.91 0.69 0.36 0.79 0.43l10.16-1.93c0.58-0.11 0.98-0.7 1.2-1.77 0.23-1.07 0.39-2.26 0.48-3.56 0.1-1.3 0.14-2.55 0.12-3.75-0.01-1.19 0.03-1.97 0.13-2.33 0.05-0.18 0.24-0.56 0.55-1.13 0.32-0.57 0.46-0.94 0.43-1.11 0.08-0.02 0.11-0.1 0.08-0.27-0.03-0.16-0.06-0.33-0.09-0.5-0.17-0.91-0.86-1.8-2.05-2.69-1.19-0.88-2.29-1.23-3.28-1.04-0.58 0.11-1.72 0.84-3.43 2.19s-3.46 2.84-5.25 4.46a89.781 89.781 0 0 0-4.77 4.63c-1.39 1.46-2.05 2.36-1.99 2.69 0.17 0.91 0.66 1.67 1.46 2.29zm-19.48-59.18c-3.12-0.39-6.1-1.09-8.94-2.12a32.21 32.21 0 0 1-7.92-4.16c-2.44-1.75-4.45-3.99-6.02-6.73-0.17-0.25-0.44-0.7-0.79-1.37-0.35-0.66-0.73-1.37-1.12-2.12-0.4-0.75-0.75-1.43-1.06-2.06-0.31-0.62-0.51-1.06-0.6-1.31a6.11 6.11 0 0 1-0.63-2.82c0.02-0.97 0.02-1.91-0.01-2.84-0.13-5.38 1.04-9.94 3.52-13.7s5.69-7.28 9.65-10.57c0.5-0.35 1.43-0.81 2.8-1.39s2.87-1.12 4.5-1.62 3.21-0.94 4.76-1.31 2.7-0.57 3.45-0.59c0.17 0 0.53 0.01 1.07 0.04 0.55 0.03 0.91 0.04 1.07 0.04 1.28 0.73 2.14 1.71 2.59 2.96s0.82 2.55 1.1 3.88c0.02 0.93 0.04 2.58 0.06 4.98s0.05 4.94 0.12 7.63c0.06 2.61 0.14 5.1 0.24 7.5 0.1 2.39 0.16 4.05 0.18 4.98s0.07 2.04 0.14 3.34 0.15 2.58 0.22 3.84 0.21 2.81 0.43 4.66l0.39 0.5c0.09 0 0.38 0.01 0.89 0.04s0.85 0.04 1.02 0.04c2.45-0.06 4.77-0.56 6.94-1.49 2.18-0.94 4.07-2.2 5.68-3.79a17.54 17.54 0 0 0 3.8-5.58c0.92-2.12 1.35-4.45 1.29-6.97-0.01-0.25-0.04-0.82-0.1-1.7s-0.1-1.45-0.1-1.7c-0.95-1.15-1.64-2.48-2.05-3.99-0.41-1.5-1.09-2.79-2.05-3.86-0.78-0.82-1.72-1.58-2.83-2.26-1.11-0.69-2.18-1.42-3.21-2.19s-1.89-1.61-2.58-2.52-1.06-2.03-1.09-3.38c-0.03-1.26 0.32-2.3 1.06-3.11 0.74-0.82 1.69-1.24 2.87-1.27 1.93-0.05 3.69 0.33 5.26 1.13 1.58 0.8 3.13 1.69 4.66 2.66 3.72 2.43 6.41 5.69 8.09 9.77s2.57 8.3 2.67 12.67c0.1 4.29-0.64 8.17-2.24 11.66s-3.8 6.44-6.6 8.86-6.05 4.31-9.76 5.66-7.62 2.07-11.74 2.17c-2.93 0.05-5.96-0.11-9.08-0.49zm-2.03-11.12c0.25-0.01 0.37-0.18 0.37-0.51l-0.7-29.11c0-0.17-0.11-0.4-0.33-0.69a6.62 6.62 0 0 0-0.58-0.68c-0.17-0.08-0.46-0.11-0.89-0.1-0.42 0.01-0.71 0.02-0.88 0.02-2.02 0.05-3.7 0.59-5.07 1.63a11.042 11.042 0 0 0-3.19 3.86c-0.76 1.53-1.31 3.21-1.65 5.02-0.33 1.82-0.48 3.52-0.45 5.12 0.04 1.76 0.32 3.57 0.82 5.4 0.51 1.84 1.28 3.5 2.33 4.99 1.04 1.49 2.36 2.72 3.93 3.69 1.58 0.97 3.42 1.43 5.52 1.38 0.18 0 0.43-0.01 0.77-0.02zm33-58.98c-0.87-0.28-1.66-0.68-2.37-1.2-0.71-0.51-1.3-1.12-1.78-1.82-0.47-0.7-0.65-1.5-0.53-2.42l2.47-19.13-0.67-0.72-37.51-4.83-2.27-1.06-20.94-2.7c-0.5-0.06-1.08 0.37-1.75 1.3s-1.06 1.52-1.18 1.75c0.05 0.26 0.12 0.71 0.21 1.36s0.16 1.36 0.23 2.13 0.12 1.5 0.16 2.18 0.04 1.15 0.01 1.4l-0.26 2c-0.18 1.42-0.47 2.5-0.86 3.26l-1.44 2.8c-0.36 0.8-0.66 1.53-0.91 2.17-0.25 0.65-0.57 1.18-0.97 1.59-0.39 0.42-0.87 0.71-1.44 0.89s-1.4 0.2-2.48 0.06c-2.32-0.3-3.81-1.4-4.45-3.31-0.64-1.9-0.83-3.9-0.56-5.98 0.19-1.5 0.55-2.96 1.07-4.37 0.52-1.42 0.88-2.87 1.07-4.38 0.15-1.17 0.21-2.3 0.19-3.41-0.03-1.1 0.03-2.24 0.18-3.41 0.14-1.08 0.42-2.23 0.83-3.45s0.96-2.33 1.64-3.35a7.532 7.532 0 0 1 2.59-2.4c1.05-0.58 2.28-0.79 3.69-0.6l66.3 8.54 1.28-1.11 2.14-16.63c0.11-0.83 0.44-1.53 0.98-2.1a6.32 6.32 0 0 1 1.92-1.34c0.73-0.33 1.52-0.55 2.35-0.65 0.84-0.1 1.59-0.11 2.27-0.02 1.53 0.2 2.84 0.77 3.93 1.71 1.09 0.95 1.52 2.29 1.29 4.04l-6.24 48.39c-0.18 1.42-0.85 2.71-1.99 3.87-1.14 1.17-2.44 1.66-3.89 1.47-0.67-0.05-1.44-0.23-2.31-0.52zm10.62-73.46c-0.82-0.41-1.54-0.93-2.16-1.55a7.386 7.386 0 0 1-1.47-2.07c-0.36-0.76-0.41-1.58-0.15-2.47l5.44-18.51-0.55-0.82-36.29-10.66-2.08-1.4-20.25-5.95c-0.48-0.14-1.13 0.19-1.93 1.01-0.81 0.81-1.29 1.33-1.44 1.55 0.01 0.27 0.01 0.72-0.01 1.38-0.02 0.65-0.05 1.36-0.1 2.14-0.05 0.77-0.12 1.5-0.18 2.18-0.07 0.68-0.14 1.14-0.21 1.38l-0.57 1.94c-0.4 1.37-0.86 2.4-1.36 3.08-0.51 0.68-1.13 1.53-1.86 2.54-0.48 0.74-0.89 1.4-1.24 2s-0.75 1.07-1.2 1.42-0.97 0.57-1.57 0.66c-0.59 0.09-1.41-0.02-2.46-0.33-2.25-0.66-3.54-1.98-3.88-3.96-0.33-1.98-0.21-3.98 0.39-6 0.43-1.45 1.01-2.83 1.74-4.15s1.32-2.7 1.74-4.15c0.33-1.13 0.57-2.24 0.72-3.34 0.15-1.09 0.39-2.21 0.72-3.34 0.31-1.05 0.76-2.14 1.36-3.28s1.31-2.15 2.14-3.05c0.83-0.89 1.81-1.55 2.93-1.96s2.37-0.42 3.74-0.02l64.14 18.84 1.44-0.89 4.73-16.09c0.24-0.81 0.67-1.45 1.3-1.92s1.34-0.81 2.11-1.02c0.78-0.21 1.58-0.3 2.43-0.27 0.84 0.03 1.59 0.14 2.25 0.33 1.48 0.43 2.68 1.2 3.61 2.31s1.14 2.5 0.64 4.2l-13.75 46.81c-0.4 1.37-1.26 2.54-2.57 3.52-1.31 0.97-2.67 1.25-4.07 0.84-0.67-0.21-1.4-0.52-2.22-0.93zm-6.27-84.88c-2.62-1.74-4.97-3.7-7.05-5.89a32.445 32.445 0 0 1-5.23-7.26c-1.4-2.65-2.19-5.56-2.38-8.71-0.04-0.3-0.08-0.82-0.1-1.58-0.02-0.75-0.04-1.55-0.06-2.4s-0.03-1.62-0.03-2.31 0.02-1.17 0.05-1.44c0.01-1.01 0.24-1.95 0.69-2.81s0.87-1.7 1.26-2.54c2.29-4.87 5.38-8.43 9.27-10.69s8.34-3.97 13.35-5.15c0.6-0.09 1.64-0.09 3.13 0.01s3.07 0.28 4.75 0.56c1.68 0.28 3.3 0.6 4.84 0.95 1.55 0.36 2.67 0.7 3.35 1.02 0.15 0.07 0.47 0.24 0.94 0.51 0.48 0.27 0.79 0.44 0.94 0.51 0.82 1.22 1.15 2.49 1 3.81a29.47 29.47 0 0 1-0.75 3.97c-0.39 0.84-1.12 2.33-2.17 4.48-1.06 2.15-2.16 4.44-3.3 6.88-1.11 2.36-2.15 4.63-3.13 6.82s-1.67 3.7-2.06 4.53c-0.39 0.84-0.85 1.85-1.36 3.05-0.52 1.2-1.02 2.38-1.52 3.53s-1.06 2.61-1.7 4.36l0.13 0.62c0.08 0.04 0.34 0.18 0.78 0.44s0.74 0.42 0.89 0.49c2.22 1.04 4.51 1.63 6.88 1.77s4.62-0.15 6.78-0.85c2.15-0.71 4.12-1.8 5.89-3.29s3.19-3.37 4.27-5.66c0.11-0.23 0.33-0.75 0.67-1.57s0.56-1.34 0.67-1.57c-0.34-1.46-0.35-2.95-0.05-4.48s0.27-2.98-0.11-4.37c-0.33-1.08-0.83-2.18-1.52-3.29-0.68-1.11-1.31-2.24-1.89-3.39-0.57-1.15-0.97-2.29-1.18-3.41-0.22-1.12-0.04-2.29 0.53-3.51 0.54-1.14 1.32-1.91 2.34-2.31s2.07-0.35 3.13 0.15c1.75 0.82 3.15 1.94 4.2 3.37 1.05 1.42 2.04 2.91 2.98 4.47 2.24 3.84 3.19 7.96 2.87 12.35-0.32 4.4-1.42 8.58-3.27 12.53-1.82 3.88-4.23 7.02-7.21 9.42-2.99 2.41-6.27 4.07-9.86 4.98-3.59 0.92-7.34 1.15-11.26 0.7-3.92-0.45-7.75-1.55-11.47-3.3-2.66-1.26-5.3-2.76-7.92-4.5zm3.15-10.85c0.23 0.11 0.41 0.01 0.56-0.3l12.38-26.36c0.07-0.15 0.07-0.4 0.01-0.76-0.07-0.35-0.14-0.64-0.22-0.87-0.12-0.15-0.36-0.31-0.75-0.49-0.38-0.18-0.65-0.3-0.8-0.38-1.83-0.86-3.58-1.12-5.26-0.8s-3.21 1-4.57 2.03c-1.37 1.03-2.6 2.28-3.71 3.76s-2.01 2.94-2.69 4.38c-0.75 1.6-1.31 3.33-1.68 5.2s-0.42 3.7-0.15 5.5 0.89 3.48 1.87 5.06c0.98 1.57 2.42 2.81 4.32 3.7 0.16 0.08 0.39 0.19 0.69 0.33zm54.5-42.13c-0.17-1.69 0.28-3.34 1.37-4.94 0.66-0.97 1.4-1.87 2.21-2.69s1.57-1.75 2.28-2.8c0.19-0.28 0.44-0.69 0.76-1.24 0.32-0.54 0.5-0.85 0.55-0.92l-0.13-0.7c-0.28-0.19-0.72-0.51-1.32-0.97s-1.26-0.95-1.96-1.49c-0.71-0.53-1.37-1.05-1.98-1.57s-1.06-0.87-1.34-1.06c-0.14-0.09-0.45-0.38-0.94-0.86-0.48-0.48-0.77-0.8-0.87-0.97l-10.36-6.73-1.98-1.35-12.73-7.73-1.4 0.27c-0.24 0.35-0.65 0.93-1.26 1.74-0.6 0.81-1.25 1.69-1.95 2.64s-1.36 1.82-2 2.61c-0.63 0.79-1.07 1.35-1.31 1.7-1.08 1.3-2.41 2.1-3.99 2.4s-3.06-0.02-4.45-0.96-2.31-2.18-2.75-3.69c-0.44-1.52-0.17-3.01 0.82-4.47 0.05-0.07 0.12-0.17 0.21-0.31 0.14-0.21 0.25-0.29 0.32-0.24 0.89-1.02 1.84-2.38 2.85-4.08 1-1.7 2.11-3.37 3.31-4.99s2.49-3.03 3.86-4.23 2.84-1.83 4.4-1.89c0.23-0.04 0.62 0.02 1.17 0.18 0.55 0.17 1.12 0.33 1.73 0.49s1.16 0.23 1.68 0.22c0.51-0.01 0.86-0.15 1.05-0.43l0.14-0.21c-0.28-3.33-0.31-6.73-0.09-10.19s1.29-6.61 3.23-9.47a17.95 17.95 0 0 1 4.32-4.46c1.7-1.23 3.47-2.09 5.32-2.56s3.76-0.57 5.75-0.28 3.89 1.04 5.7 2.27c2.57 1.75 4.35 3.84 5.33 6.29s0.48 5.13-1.5 8.05c-0.94 1.39-2.13 2.21-3.57 2.45-1.44 0.25-2.95 0.19-4.53-0.18-1.58-0.36-3.11-0.92-4.58-1.66-1.47-0.75-2.72-1.41-3.74-2.01-0.4-0.17-0.71-0.08-0.95 0.27s-0.4 0.59-0.5 0.73c-0.24 0.35-0.44 0.69-0.62 1.03s-0.22 0.74-0.13 1.21c0.02 0.42 0.13 1.15 0.33 2.21 0.2 1.05 0.41 2.16 0.64 3.33 0.22 1.17 0.43 2.28 0.64 3.33 0.2 1.05 0.34 1.75 0.4 2.1 0.09 0.47 0.29 1.19 0.59 2.16 0.31 0.97 0.68 1.96 1.11 2.96 0.44 1.01 0.9 1.93 1.39 2.78 0.49 0.84 0.91 1.38 1.26 1.62l11.79 8c0.19 0.03 0.59 0.17 1.22 0.45 0.63 0.27 1.01 0.46 1.15 0.55 0.21 0.14 0.65 0.39 1.32 0.75s1.37 0.75 2.09 1.19 1.4 0.85 2.05 1.24 1.11 0.68 1.39 0.87c0.95 0.24 1.69 0.13 2.21-0.33s1.03-1.07 1.55-1.84c0.52-0.76 0.98-1.59 1.39-2.49 0.4-0.89 0.86-1.72 1.38-2.49a9.5 9.5 0 0 1 4.28-3.5c1.77-0.73 3.48-0.53 5.15 0.6 1.39 0.94 2.27 2 2.65 3.17s0.41 2.39 0.11 3.65c-0.3 1.27-0.8 2.53-1.5 3.78s-1.4 2.4-2.11 3.44c-0.8 1.18-1.66 2.3-2.58 3.35s-1.78 2.17-2.58 3.35c-0.38 0.56-0.68 1.04-0.9 1.44-0.22 0.41-0.47 1.03-0.73 1.86l-8.07 11.89c-1.13 1.67-2.72 2.8-4.75 3.4s-3.92 0.31-5.66-0.87c-1.58-1.09-2.47-2.48-2.64-4.17zm136.77-149.15c-1.47-1.89-3.05-3.7-4.75-5.42s-3.52-3.27-5.45-4.67a31.938 31.938 0 0 0-6.12-3.46 27.07 27.07 0 0 1-3.25-1.51c-1.14-0.62-2.28-0.92-3.43-0.9-1.09 0.5-2.03 0.94-2.8 1.3-0.77 0.37-1.49 0.77-2.16 1.22s-1.34 0.92-2.01 1.42c-0.61 0.45-1.35 1.01-2.22 1.66l-3.74 2.79c-0.4 0.3-0.97 0.8-1.71 1.51-0.73 0.7-1.11 1.12-1.13 1.23l-0.1 0.71 14.17 19c0.45 0.61 1.4 0.61 2.84 0.01s3.02-1.23 4.73-1.88c1.72-0.65 3.47-1.04 5.26-1.17s3.31 0.65 4.57 2.33c0.8 1.08 1.14 2.13 1.02 3.17-0.12 1.03-0.48 2.03-1.07 3s-1.34 1.86-2.24 2.69-1.76 1.55-2.57 2.15l-1.11 0.83c-0.61 0.45-1.68 1.23-3.22 2.32-1.54 1.1-3.17 2.26-4.88 3.48s-3.33 2.35-4.86 3.39-2.6 1.78-3.21 2.24c-0.62 0.57-1.36 0.88-2.21 0.94s-1.72-0.06-2.61-0.34-1.71-0.67-2.44-1.17c-0.74-0.5-1.33-1.05-1.79-1.66-0.95-1.28-1.39-2.5-1.31-3.66s0.46-2.26 1.16-3.3c0.69-1.04 1.57-2.01 2.63-2.91s2.1-1.72 3.11-2.47c0.03-0.23 0.05-0.56 0.05-0.98s-0.05-0.7-0.15-0.83l-17.01-22.39-1.51-2.02-18.32-23.3-1.41-0.21-7.5 3.23c-1.08 0.39-2.06 0.2-2.94-0.56s-1.57-1.47-2.07-2.15c-0.8-1.08-1.33-2.34-1.57-3.79s0.28-2.65 1.56-3.6l15.46-11.53c0.44-0.96 0.95-1.68 1.53-2.16s1.24-1 1.98-1.56c3.5-2.61 7.2-5 11.09-7.17s7.78-3.6 11.66-4.29c3.88-0.7 7.69-0.36 11.43 0.99 3.74 1.36 7.24 4.22 10.5 8.6 1.41 1.89 2.73 4.02 3.98 6.39 1.24 2.37 1.84 4.79 1.78 7.24 0 0.84-0.15 1.74-0.44 2.68-0.29 0.95-0.56 1.89-0.81 2.81s-0.37 1.82-0.35 2.7c0.02 0.87 0.34 1.72 0.94 2.52l0.68 0.91c2.9 1.08 5.71 2.64 8.42 4.65 2.71 2.02 5.16 3.94 7.36 5.76 0.8 0.66 1.71 1.63 2.73 2.92 1.01 1.29 2.09 2.14 3.23 2.54 1.02 0.39 1.97 0.47 2.85 0.23 0.87-0.23 1.72-0.5 2.55-0.8 0.82-0.3 1.7-0.53 2.63-0.7 0.92-0.16 1.92-0.02 3 0.44 1.31 0.49 2.16 0.86 2.54 1.09 0.39 0.24 0.91 0.79 1.56 1.67 0.85 1.15 1.31 2.54 1.38 4.16 0.06 1.63-0.58 2.95-1.93 3.95l-0.2 0.15c-1.36 0.7-2.78 1.62-4.23 2.76-1.46 1.14-2.92 2.13-4.4 2.96-1.47 0.84-2.98 1.31-4.53 1.41-1.55 0.11-3.06-0.55-4.53-1.97-1.25-1.84-2.63-3.72-4.09-5.62zm-60.63-35.22c-0.46 0.65-0.48 1.25-0.08 1.79l12.96 17.38c0.15 0.2 0.5 0.46 1.06 0.78 0.55 0.32 0.97 0.53 1.26 0.63l2.32-1.73c0.88-0.65 1.67-1.35 2.38-2.09s1.47-1.41 2.27-2.01c1.01-0.75 2.04-1.41 3.08-1.98s2.1-1.25 3.18-2.06l3.34-2.49c1.87-2.55 3.01-5.21 3.41-7.97s-0.38-5.46-2.33-8.09c-1.15-1.55-2.5-2.93-4.04-4.15-1.53-1.21-3.35-1.82-5.45-1.83-3.42 0.77-6.67 2.02-9.78 3.75-3.1 1.74-6.07 3.66-8.9 5.78-0.34 0.25-0.94 0.7-1.82 1.36-0.88 0.65-1.46 1.14-1.74 1.46-0.3 0.33-0.67 0.81-1.12 1.47zm89.55-11.76a81.473 81.473 0 0 0-4.3-10.67c-0.11-0.23-0.28-0.57-0.5-1.02-0.26-0.53-0.55-1.07-0.86-1.61-0.32-0.55-0.58-1.05-0.8-1.5-0.26-0.53-0.44-0.91-0.55-1.13a8.646 8.646 0 0 0-3.3 0.28c-1.11 0.31-2.18 0.56-3.22 0.73-1.04 0.18-2 0.12-2.9-0.19-0.9-0.31-1.68-1.14-2.35-2.5-0.63-1.28-0.77-2.57-0.42-3.87 0.35-1.29 1.2-2.27 2.56-2.94l9.29-4.54c1.13-0.55 2.14-0.74 3.02-0.57 0.88 0.18 1.68 0.58 2.41 1.2s1.37 1.36 1.92 2.21a22.4 22.4 0 0 1 1.39 2.4c0.77 1.58 1.43 3.17 1.98 4.77s1.21 3.19 1.98 4.77c0.26 0.53 0.67 1.33 1.24 2.4s0.89 1.69 0.97 1.84c0.37 0.75 1.06 2.07 2.08 3.96 1.01 1.89 2.09 3.9 3.24 6.05 1.14 2.15 2.24 4.15 3.29 6.02s1.76 3.17 2.13 3.93c1.26 1.81 2.67 3.13 4.24 3.95s3.45 0.69 5.64-0.38c0.91-0.44 1.89-1.02 2.95-1.72s1.8-1.58 2.22-2.63c0.77-1.87 1.49-3.93 2.17-6.18s1.16-4.52 1.44-6.81 0.33-4.58 0.15-6.88c-0.19-2.29-0.76-4.42-1.72-6.39l-8.03-16.42c-0.15-0.3-0.76-0.26-1.83 0.13-1.08 0.38-2.31 0.73-3.7 1.04s-2.78 0.35-4.15 0.13-2.41-1.04-3.11-2.48c-0.63-1.28-0.73-2.5-0.31-3.64s1.35-2.06 2.79-2.77l10.19-4.98c1.36-0.66 2.55-0.71 3.58-0.14s1.94 1.39 2.74 2.45 1.51 2.23 2.14 3.51 1.24 2.25 1.83 2.89l5.64 12.12 1.05 2.15 10.19 21.4 1.35 0.46c1.13-0.55 2.34-1.1 3.62-1.63s2.57-0.86 3.87-0.98 2.48 0.06 3.56 0.52c1.07 0.47 1.98 1.46 2.72 2.99 0.67 1.37 0.93 2.57 0.77 3.59a5.092 5.092 0 0 1-1.28 2.68c-0.7 0.77-1.56 1.45-2.58 2.04-1.02 0.6-2.06 1.15-3.11 1.67-0.61 0.3-1.59 0.73-2.94 1.3-1.36 0.57-2.8 1.02-4.33 1.34s-2.97 0.39-4.32 0.2c-1.36-0.19-2.31-0.85-2.87-2l-2.41-4.92-0.45 0.22c-0.61 2-1.23 3.94-1.86 5.8-0.63 1.87-1.39 3.66-2.29 5.37-0.89 1.71-2 3.27-3.33 4.67-1.33 1.41-2.93 2.57-4.82 3.49-3.1 1.51-6.13 2.11-9.09 1.78a20.44 20.44 0 0 1-8.29-2.75c-2.56-1.51-4.88-3.46-6.94-5.87a35.86 35.86 0 0 1-5.09-7.69 80.66 80.66 0 0 1-4.3-10.65zm83.68-11.07c1.42-1.14 3.32-2.14 5.7-2.99l0.35-0.62c-0.16-1.18-0.39-2.53-0.69-4.06s-0.5-2.94-0.61-4.22l-7.94-28.02c-0.16-0.56-0.79-0.85-1.88-0.84-1.09 0-2.29-0.07-3.6-0.22s-2.6-0.55-3.88-1.19c-1.27-0.64-2.19-1.93-2.74-3.88-0.6-2.1-0.26-3.75 1.02-4.94s2.81-2.04 4.59-2.54c0.24-0.07 0.61-0.17 1.09-0.31 0.57-0.16 0.86-0.2 0.88-0.12 2.44-0.34 4.43-0.47 5.98-0.39s2.85 0.44 3.9 1.06 1.93 1.57 2.64 2.85 1.45 2.95 2.21 5.01c0.1 0.06 0.2 0.08 0.28 0.05l0.24-0.07c0.48-0.14 0.88-0.51 1.19-1.12s0.61-1.31 0.91-2.09 0.6-1.57 0.91-2.35c0.3-0.78 0.65-1.41 1.04-1.87 1.8-2.26 3.76-4.54 5.86-6.84s4.61-3.86 7.52-4.69c1.78-0.5 3.7-0.59 5.76-0.26s3.99 0.99 5.8 1.96c1.8 0.97 3.4 2.22 4.8 3.75 1.39 1.53 2.36 3.22 2.88 5.08l8.49 29.96c-0.07 0.98-0.02 1.84 0.14 2.58s0.38 1.55 0.63 2.44c0.07 0.24 0.27 0.8 0.6 1.66l0.62 0.35c2.3-0.21 4.46-0.04 6.5 0.52s3.42 2.13 4.15 4.72c0.6 2.1 0.37 3.68-0.69 4.72s-2.56 1.84-4.5 2.39l-1.82 0.52c-0.65 0.18-1.78 0.48-3.41 0.9s-3.36 0.87-5.19 1.34c-1.83 0.48-3.57 0.9-5.21 1.28s-2.78 0.66-3.43 0.84c-2.8 0.01-4.56-1.28-5.29-3.87-0.87-3.07-0.56-5.28 0.94-6.62s3.52-2.46 6.06-3.36l0.35-0.62-0.25-5.04-5.23-18.44c0.01-0.27 0.02-0.79 0.01-1.58-0.01-0.78-0.04-1.3-0.11-1.54l-0.14-0.48c-0.05-0.16-0.24-0.61-0.58-1.34s-0.57-1.17-0.7-1.31c-0.07-0.24-0.22-0.68-0.44-1.32-0.22-0.63-0.45-1.29-0.69-1.97-0.24-0.67-0.47-1.33-0.69-1.97-0.22-0.63-0.37-1.07-0.44-1.32-1.07-1.01-2.2-1.45-3.39-1.33s-2.39 0.35-3.6 0.69c-2.02 0.57-3.76 1.59-5.23 3.05a22.52 22.52 0 0 0-3.76 5 33.151 33.151 0 0 0-2.58 5.91c-0.68 2.07-1.25 4-1.7 5.79-0.06 0.1-0.16 0.37-0.3 0.8s-0.23 0.74-0.26 0.93c-0.13 0.47-0.43 1.56-0.91 3.27l3.92 13.83c-0.18 0.92-0.2 1.68-0.08 2.25 0.12 0.58 0.31 1.31 0.56 2.2l0.52 1.82c0.69 0.59 1.6 0.79 2.73 0.6s2.32-0.29 3.59-0.3c1.26-0.01 2.44 0.27 3.51 0.84 1.08 0.57 1.92 1.9 2.51 4.01 0.48 1.7 0.21 3.15-0.8 4.35s-2.31 2.12-3.88 2.74l-9.94 2.82c-0.16 0.05-0.59 0.08-1.28 0.1s-1.12 0.06-1.28 0.1c-1.42 0.23-2.82 0.52-4.21 0.87s-2.67 0.52-3.85 0.5c-1.18-0.01-2.21-0.33-3.09-0.96-0.88-0.62-1.57-1.83-2.07-3.61-0.76-2.75-0.44-4.7 0.98-5.84zm80.94-21.14c1.6-0.88 3.65-1.53 6.14-1.96l0.45-0.55c0.05-1.19 0.05-2.56 0.02-4.12s0.01-2.98 0.14-4.26l-2.96-28.97c-0.06-0.58-0.63-0.97-1.7-1.16-1.08-0.19-2.25-0.47-3.51-0.85s-2.47-0.99-3.61-1.85c-1.14-0.85-1.82-2.29-2.02-4.29-0.22-2.17 0.4-3.74 1.87-4.69s3.12-1.52 4.96-1.71c0.25-0.03 0.63-0.06 1.13-0.11 0.58-0.06 0.88-0.05 0.89 0.04 2.46 0.09 4.44 0.31 5.96 0.66 1.51 0.35 2.73 0.92 3.66 1.72 0.92 0.79 1.63 1.88 2.11 3.27s0.91 3.16 1.3 5.32c0.09 0.08 0.18 0.11 0.26 0.1l0.25-0.03c0.5-0.05 0.96-0.35 1.37-0.9s0.83-1.18 1.26-1.9 0.87-1.44 1.3-2.16 0.88-1.27 1.35-1.66c2.17-1.91 4.49-3.82 6.96-5.72s5.2-3 8.22-3.31c1.84-0.19 3.74 0.06 5.72 0.75 1.97 0.69 3.76 1.66 5.37 2.94 1.61 1.27 2.97 2.78 4.07 4.53 1.11 1.75 1.76 3.58 1.96 5.5l3.17 30.98c-0.24 0.96-0.34 1.81-0.31 2.57s0.1 1.6 0.19 2.51c0.02 0.25 0.13 0.83 0.3 1.74l0.55 0.45c2.3 0.19 4.4 0.73 6.31 1.64 1.91 0.9 3 2.69 3.27 5.37 0.22 2.18-0.28 3.68-1.5 4.53-1.22 0.84-2.84 1.37-4.84 1.57l-1.88 0.19c-0.67 0.07-1.84 0.17-3.52 0.3s-3.46 0.27-5.34 0.42c-1.89 0.15-3.67 0.27-5.35 0.36s-2.86 0.17-3.52 0.23c-2.75-0.48-4.27-2.05-4.54-4.73-0.32-3.18 0.37-5.3 2.07-6.36 1.71-1.06 3.89-1.81 6.55-2.25l0.45-0.55 0.63-5.01-1.95-19.06c0.06-0.26 0.15-0.78 0.29-1.55 0.13-0.77 0.19-1.29 0.16-1.54l-0.06-0.5c-0.02-0.17-0.13-0.64-0.34-1.42s-0.36-1.25-0.46-1.41c-0.03-0.25-0.09-0.71-0.2-1.37s-0.22-1.35-0.34-2.06c-0.11-0.7-0.23-1.39-0.34-2.06-0.11-0.66-0.18-1.12-0.2-1.37-0.88-1.18-1.92-1.81-3.11-1.9s-2.41-0.07-3.67 0.06c-2.09 0.21-3.98 0.91-5.68 2.1s-3.22 2.61-4.57 4.27a33.847 33.847 0 0 0-3.57 5.37 89.602 89.602 0 0 0-2.68 5.41c-0.08 0.09-0.22 0.34-0.43 0.74s-0.35 0.69-0.42 0.87c-0.21 0.44-0.7 1.46-1.46 3.06l1.46 14.3c-0.33 0.88-0.49 1.61-0.47 2.2s0.07 1.35 0.17 2.26l0.19 1.88c0.58 0.7 1.44 1.06 2.58 1.07s2.34 0.12 3.58 0.33c1.25 0.21 2.35 0.69 3.31 1.44s1.56 2.21 1.78 4.38c0.18 1.76-0.34 3.14-1.54 4.15-1.21 1.01-2.64 1.69-4.29 2.02l-10.28 1.06c-0.17 0.02-0.59-0.02-1.28-0.12s-1.11-0.14-1.28-0.12c-1.44-0.02-2.87 0.02-4.3 0.12s-2.72 0.05-3.88-0.17-2.12-0.71-2.88-1.48-1.23-2.07-1.41-3.91c-0.29-2.9 0.36-4.76 1.96-5.64zm82.4-5.05c1.06-1.61 2.59-2.37 4.61-2.26l13.85 0.77 0.95-1.2c0.02-0.33 0.07-0.92 0.16-1.75s0.2-1.7 0.34-2.62c0.13-0.91 0.24-1.79 0.33-2.62s0.14-1.41 0.16-1.75c0.09-0.16 0.2-0.57 0.32-1.24 0.12-0.66 0.23-1.07 0.32-1.24l1.54-27.65-14.73-0.82c-0.84-0.05-1.56-0.32-2.16-0.83s-1.1-1.11-1.48-1.82-0.66-1.47-0.82-2.3c-0.17-0.82-0.23-1.58-0.19-2.26 0.08-1.37 0.47-2.42 1.19-3.15 0.71-0.73 1.56-1.26 2.55-1.6 0.99-0.33 2.05-0.53 3.19-0.6 1.14-0.06 2.17-0.07 3.09-0.02 1.43 0.08 2.83 0.24 4.2 0.49 1.38 0.25 2.77 0.41 4.2 0.49 1.01 0.06 2 0.03 2.97-0.09 0.97-0.11 1.97-0.14 2.97-0.09 1.43 0.08 2.89 0.62 4.39 1.63s2.2 2.4 2.1 4.16l-2.61 46.83 0.71 0.8 13.34 0.74c0.76 0.04 1.43 0.36 2.03 0.95s1.11 1.28 1.52 2.08c0.42 0.8 0.71 1.63 0.87 2.49 0.16 0.87 0.23 1.6 0.19 2.2-0.07 1.2-0.45 2.38-1.14 3.54-0.7 1.17-1.76 1.71-3.18 1.63l-42.92-2.39c-1.51-0.08-2.68-0.66-3.5-1.74s-1.2-2.34-1.11-3.8c0.12-1.68 0.7-3.34 1.75-4.96zm21.97-75.91c1.69-1.59 3.79-2.31 6.31-2.17 1.34 0.07 2.56 0.46 3.66 1.15 1.1 0.69 2.01 1.59 2.76 2.68 0.74 1.1 1.3 2.28 1.7 3.57 0.39 1.28 0.55 2.56 0.48 3.81-0.14 2.52-1.17 4.46-3.1 5.83s-4.07 1.98-6.42 1.85c-2.85-0.16-4.96-1.29-6.31-3.38-1.36-2.1-1.96-4.53-1.8-7.3 0.12-2.44 1.03-4.45 2.72-6.04zm46.1 79.31c1.79-0.34 3.94-0.32 6.44 0.04l0.6-0.39c0.41-1.11 0.85-2.42 1.3-3.91s0.94-2.83 1.45-4.01l6.18-28.46c0.12-0.57-0.3-1.12-1.26-1.63-0.97-0.51-1.99-1.14-3.07-1.89s-2.04-1.71-2.86-2.88-1.02-2.74-0.59-4.71c0.46-2.14 1.54-3.43 3.23-3.88s3.44-0.48 5.24-0.09c0.25 0.05 0.62 0.13 1.11 0.24 0.57 0.12 0.85 0.23 0.84 0.31 2.31 0.85 4.13 1.67 5.46 2.48 1.33 0.8 2.31 1.73 2.95 2.77 0.63 1.04 0.96 2.3 0.99 3.76 0.02 1.47-0.11 3.29-0.41 5.46 0.06 0.1 0.14 0.16 0.22 0.18l0.25 0.05c0.49 0.11 1.02-0.04 1.58-0.43s1.16-0.87 1.79-1.42c0.64-0.55 1.27-1.1 1.91-1.65s1.23-0.94 1.8-1.16a138.7 138.7 0 0 1 8.39-3.27c2.93-1.04 5.88-1.24 8.84-0.6 1.81 0.39 3.54 1.22 5.2 2.48a18.212 18.212 0 0 1 6.66 10.03c0.51 2 0.56 3.95 0.15 5.84l-6.61 30.43c-0.53 0.83-0.89 1.61-1.09 2.34s-0.4 1.55-0.6 2.45c-0.05 0.25-0.14 0.83-0.25 1.75l0.39 0.6c2.13 0.89 3.96 2.06 5.49 3.51s2.02 3.49 1.44 6.12c-0.46 2.14-1.41 3.41-2.83 3.84-1.43 0.42-3.12 0.42-5.09-0.01l-1.85-0.4c-0.66-0.14-1.8-0.41-3.44-0.81-1.63-0.4-3.37-0.82-5.21-1.26s-3.57-0.88-5.2-1.32-2.77-0.73-3.42-0.87c-2.47-1.31-3.42-3.28-2.85-5.91 0.68-3.12 1.99-4.92 3.95-5.4 1.95-0.48 4.26-0.51 6.93-0.11l0.6-0.39 2.15-4.56 4.07-18.73c0.13-0.23 0.39-0.69 0.75-1.39 0.36-0.69 0.58-1.16 0.63-1.41l0.1-0.5c0.03-0.16 0.08-0.65 0.12-1.46 0.05-0.81 0.04-1.3 0-1.48 0.05-0.25 0.13-0.7 0.23-1.37s0.21-1.35 0.32-2.06 0.22-1.39 0.32-2.06 0.18-1.12 0.23-1.37c-0.47-1.39-1.26-2.32-2.36-2.77-1.11-0.45-2.27-0.82-3.51-1.08-2.05-0.45-4.07-0.37-6.05 0.23s-3.87 1.48-5.67 2.64-3.49 2.49-5.06 4a88.313 88.313 0 0 0-4.23 4.31c-0.1 0.06-0.31 0.25-0.64 0.57s-0.55 0.55-0.67 0.69c-0.34 0.36-1.12 1.18-2.34 2.46l-3.05 14.04c-0.59 0.73-0.97 1.38-1.13 1.95-0.17 0.57-0.35 1.3-0.54 2.2l-0.4 1.85c0.33 0.85 1.04 1.45 2.12 1.82 1.08 0.36 2.18 0.84 3.3 1.43s2.02 1.39 2.71 2.39c0.68 1.01 0.79 2.58 0.33 4.72-0.37 1.72-1.29 2.88-2.75 3.47s-3.03 0.78-4.71 0.59l-10.1-2.2c-0.17-0.04-0.56-0.21-1.18-0.51-0.62-0.31-1.02-0.48-1.18-0.51-1.36-0.47-2.74-0.87-4.12-1.22-1.39-0.34-2.6-0.8-3.64-1.37s-1.8-1.34-2.27-2.3c-0.48-0.96-0.52-2.35-0.13-4.16 0.61-2.76 1.81-4.33 3.6-4.67zm75.4 30.52c1.3-1.19 2.92-2.26 4.85-3.2l0.36-0.54c0.32-0.78 0.48-1.62 0.49-2.52s-0.01-1.82-0.04-2.74-0.04-1.85-0.01-2.8c0.02-0.94 0.21-1.84 0.56-2.7 1.08-2.65 2.63-4.71 4.65-6.21 2.02-1.49 4.32-2.75 6.92-3.78 0.14-0.12 0.28-0.34 0.4-0.65 0.13-0.31 0.22-0.54 0.29-0.7 0.73-1.79 1.18-3.6 1.34-5.45 0.16-1.84 0.61-3.65 1.34-5.45 2-4.9 5.01-8.66 9.04-11.29 4.02-2.62 8.65-4 13.88-4.14 0.26 0.02 0.64 0.04 1.14 0.05 0.49 0.02 1 0.05 1.53 0.08 0.53 0.04 1.05 0.09 1.57 0.16 0.51 0.07 0.89 0.16 1.12 0.25 1.01 0.41 1.95 1 2.82 1.76s1.71 1.54 2.52 2.32c0.81 0.79 1.65 1.56 2.52 2.32s1.85 1.37 2.94 1.81l2.22 0.91c3.22-1.22 6.35-1.22 9.39 0.02 1.56 0.64 3.05 1.54 4.48 2.71a15.13 15.13 0 0 1 3.47 4.01c0.89 1.5 1.45 3.11 1.7 4.85 0.25 1.73 0.02 3.46-0.68 5.17-0.89 2.18-2.17 3.95-3.83 5.31s-3.72 1.54-6.17 0.54c-1.74-0.71-2.97-1.66-3.68-2.86s-1.18-2.41-1.42-3.64-0.41-2.32-0.52-3.28c-0.11-0.95-0.4-1.52-0.87-1.72-0.79 1.95-1.28 3.9-1.45 5.88-0.17 1.97-0.65 3.93-1.45 5.88a31.71 31.71 0 0 1-3.17 5.92 23.205 23.205 0 0 1-4.36 4.83 19.433 19.433 0 0 1-5.47 3.21c-2 0.77-4.17 1.14-6.51 1.09-0.91-0.01-1.69 0.01-2.34 0.06-0.66 0.05-1.29 0.09-1.89 0.12s-1.22-0.02-1.85-0.14-1.41-0.37-2.35-0.75c-1.25-0.51-2.35-1.15-3.3-1.92-0.96-0.77-1.89-1.55-2.79-2.34s-1.83-1.57-2.79-2.34c-0.96-0.77-2.06-1.41-3.3-1.92-1.48-0.6-2.67-0.52-3.57 0.24-0.91 0.77-1.61 1.77-2.12 3.02l-0.67 1.63c0.03 0.38 0.17 0.8 0.44 1.27 0.26 0.47 0.59 0.78 0.98 0.94 2.72 1.11 5.53 1.8 8.41 2.07s5.69 0.96 8.41 2.07l4.08 1.67c0.16 0.06 0.53 0.31 1.13 0.73s1.25 0.87 1.97 1.35c0.71 0.47 1.37 0.92 1.97 1.35 0.6 0.42 0.97 0.67 1.13 0.73 0.95 0.57 2.28 1.2 3.99 1.9 1.79 0.73 3.26 1.6 4.41 2.61 0.46 0.46 0.8 0.82 1.01 1.09s0.37 0.51 0.46 0.73c0.1 0.22 0.22 0.49 0.36 0.82s0.4 0.84 0.76 1.53c0.78 1.49 1.47 2.86 2.07 4.1s1.06 2.49 1.38 3.74c0.32 1.26 0.44 2.55 0.36 3.87s-0.42 2.72-1.02 4.19c-1.51 3.71-3.6 6.49-6.26 8.34s-5.62 2.98-8.88 3.41-6.64 0.31-10.14-0.35-6.8-1.63-9.91-2.9c-3.5-1.43-6.75-2.94-9.73-4.52-2.99-1.58-5.87-3.62-8.66-6.13-0.53-0.49-0.92-1.03-1.17-1.64-0.25-0.6-0.66-1.11-1.22-1.52-2.75-2.39-4.56-5.02-5.43-7.87-0.88-2.86-0.58-6.07 0.88-9.65 0.87-2.12 1.97-3.81 3.28-5zm11.33 17.43c2.12 2.04 4.69 3.69 7.72 4.93 2.49 1.02 5.05 2.02 7.69 3.01s5.12 1.86 7.44 2.63c0.95 0.12 2.11 0.22 3.47 0.33 1.36 0.1 2.72 0.07 4.06-0.11s2.58-0.54 3.71-1.07c1.13-0.54 1.93-1.39 2.41-2.56 0.76-1.87 0.37-3.75-1.17-5.65s-3.49-3.67-5.86-5.32a52.275 52.275 0 0 0-7.25-4.25c-2.46-1.19-4.24-2.01-5.33-2.45-1.48-0.6-3.25-1.26-5.32-1.97a27.69 27.69 0 0 0-6.18-1.37c-2.05-0.2-3.93-0.04-5.65 0.49-1.71 0.53-2.97 1.76-3.76 3.71l-0.81 1.98c1.1 3.06 2.71 5.63 4.83 7.67zm16.52-45.09c-0.05 1.81 0.2 3.54 0.77 5.19 0.56 1.65 1.41 3.17 2.55 4.55 1.13 1.38 2.52 2.41 4.17 3.08 1.81 0.74 3.58 1.05 5.32 0.94s3.36-0.55 4.87-1.31c1.5-0.76 2.85-1.81 4.04-3.16s2.14-2.88 2.85-4.61c1.44-3.53 1.75-6.87 0.92-10s-3.05-5.44-6.67-6.92c-1.65-0.67-3.37-1.01-5.16-1.01s-3.5 0.31-5.12 0.93c-1.63 0.62-3.1 1.53-4.42 2.73s-2.33 2.67-3.03 4.4c-0.67 1.65-1.04 3.38-1.09 5.19zm120.65 91.18c0.32-1.22 0.69-2.48 1.09-3.8 0.4-1.31 0.77-2.55 1.1-3.71s0.59-1.98 0.79-2.48c0.72-2.26 1.73-4.22 3.03-5.87s2.44-3.5 3.41-5.54l8.6-10.06c0.9-0.67 1.83-1.42 2.77-2.27 0.95-0.85 1.78-1.63 2.5-2.34l15.67-9.99c0.56-0.4 1.49-0.8 2.77-1.2s2.65-0.74 4.12-1.04c1.47-0.29 2.89-0.54 4.28-0.74 1.38-0.2 2.47-0.3 3.24-0.3 0.36 0.09 0.96 0.24 1.78 0.44s1.67 0.41 2.55 0.61 1.73 0.4 2.55 0.61c0.82 0.2 1.41 0.35 1.78 0.44 0.98 0.28 1.83 0.77 2.57 1.45 0.74 0.69 1.43 1.3 2.07 1.85 2.43 2.07 4.24 4.29 5.44 6.64s2.37 5.12 3.51 8.31l0.38 0.33c0.38 0.33 0.92 0.4 1.63 0.23 0.7-0.17 1.45-0.37 2.24-0.58s1.63-0.32 2.52-0.33 1.72 0.31 2.49 0.97 1.24 1.39 1.42 2.21 0.17 1.64-0.03 2.46-0.54 1.61-1.02 2.36-0.99 1.45-1.54 2.09c-0.6 0.7-1.27 1.32-2 1.85s-1.4 1.15-2 1.85l-0.16 0.19c-0.1 0.25-0.35 0.7-0.74 1.35s-0.68 1.08-0.84 1.27l-9.92 11.59c-0.44 0.51-1.05 1.01-1.85 1.49s-1.66 0.88-2.59 1.19a8.2 8.2 0 0 1-2.78 0.44c-0.93-0.02-1.67-0.27-2.25-0.76-1.02-0.87-1.49-1.94-1.41-3.2s0.41-2.52 1-3.79 1.28-2.47 2.09-3.6c0.81-1.14 1.36-2.07 1.66-2.81 0.87-1.8 1.55-3.37 2.05-4.72 0.49-1.35 0.77-2.68 0.85-4 0.07-1.32-0.06-2.68-0.41-4.08s-0.92-3-1.71-4.78c-0.08-0.17-0.21-0.43-0.42-0.77-0.2-0.34-0.34-0.54-0.4-0.59l-6.32-5.41c-0.06-0.06-0.22-0.1-0.46-0.14a7.18 7.18 0 0 1-0.64-0.13c-2.23-0.24-4.51-0.15-6.86 0.27s-4.64 1.09-6.86 2.01a32.53 32.53 0 0 0-6.26 3.44 27.608 27.608 0 0 0-5.14 4.65l-10.24 11.98c-0.05 0.18-0.26 0.56-0.63 1.12-0.37 0.57-0.58 0.94-0.63 1.12a69.327 69.327 0 0 0-3.81 6.69c-1.16 2.33-1.99 4.68-2.49 7.08-0.5 2.39-0.56 4.83-0.19 7.3s1.39 4.87 3.06 7.18c0.06 0.05 0.32 0.3 0.77 0.74s0.8 0.77 1.06 0.99c2.3 1.97 4.7 3.11 7.2 3.42s4.99 0.12 7.47-0.58 4.92-1.71 7.32-3.03 4.68-2.6 6.85-3.84c1.86-0.62 3.46-0.36 4.8 0.79 0.83 0.71 1.33 1.45 1.51 2.21s0.15 1.54-0.09 2.33-0.64 1.55-1.21 2.29c-0.57 0.73-1.13 1.42-1.67 2.05-2.02 2.36-4.67 4.39-7.93 6.07a35.02 35.02 0 0 1-10.33 3.44c-3.62 0.61-7.18 0.64-10.68 0.07-3.5-0.56-6.53-1.94-9.08-4.12a35.966 35.966 0 0 1-9.05-11.72c-2.2-4.54-2.85-9.4-1.94-14.6 0.07-0.47 0.27-1.32 0.59-2.54zm45.86 49.09c0.79-0.46 1.62-0.78 2.48-0.96s1.71-0.21 2.54-0.1c0.83 0.12 1.55 0.52 2.15 1.23l12.54 14.66 0.98-0.01 28.74-24.58 2.31-0.98 16.04-13.72c0.38-0.33 0.45-1.05 0.21-2.17s-0.41-1.8-0.51-2.05c-0.23-0.14-0.61-0.39-1.15-0.76s-1.12-0.79-1.73-1.25c-0.62-0.47-1.19-0.91-1.73-1.34-0.53-0.43-0.88-0.74-1.04-0.93l-1.31-1.53c-0.93-1.09-1.54-2.03-1.84-2.82l-1.11-2.95c-0.36-0.8-0.69-1.51-1-2.13s-0.49-1.22-0.53-1.78c-0.05-0.57 0.06-1.13 0.31-1.67s0.79-1.17 1.62-1.88c1.78-1.52 3.59-1.89 5.44-1.08 1.84 0.8 3.45 2 4.81 3.6 0.98 1.15 1.83 2.39 2.53 3.73 0.7 1.33 1.54 2.58 2.53 3.73 0.76 0.89 1.56 1.7 2.4 2.42s1.64 1.53 2.4 2.42c0.71 0.83 1.38 1.81 2.01 2.93s1.09 2.27 1.39 3.46c0.3 1.18 0.31 2.36 0.04 3.53s-0.94 2.22-2.02 3.14l-50.8 43.45-0.04 1.69 10.9 12.74c0.55 0.64 0.84 1.35 0.9 2.14 0.05 0.79-0.05 1.56-0.3 2.33a8.13 8.13 0 0 1-1.1 2.18c-0.48 0.69-0.98 1.26-1.5 1.7-1.17 1-2.48 1.59-3.91 1.76s-2.72-0.41-3.87-1.75l-31.71-37.08c-0.93-1.09-1.44-2.44-1.54-4.07s0.41-2.92 1.52-3.87c0.5-0.47 1.16-0.92 1.95-1.38zm77.19 49.69c3.53-1.47 6.95-3.19 10.28-5.17 0.22-0.13 0.54-0.32 0.97-0.58 0.5-0.3 1.02-0.63 1.54-0.99s1-0.67 1.43-0.92c0.5-0.3 0.87-0.52 1.08-0.64 0.03-1.1-0.15-2.18-0.55-3.27-0.4-1.08-0.73-2.13-0.99-3.15s-0.28-1.99-0.04-2.91c0.23-0.92 1-1.77 2.3-2.54 1.23-0.73 2.5-0.97 3.82-0.73s2.36 1.01 3.14 2.31l5.29 8.88c0.65 1.08 0.91 2.07 0.81 2.96s-0.44 1.73-1 2.5c-0.56 0.78-1.24 1.48-2.04 2.1s-1.56 1.15-2.28 1.58c-1.51 0.9-3.05 1.69-4.59 2.37-1.55 0.68-3.08 1.47-4.59 2.37-0.51 0.3-1.27 0.78-2.29 1.44s-1.61 1.03-1.75 1.12c-0.72 0.43-1.98 1.23-3.77 2.39-1.8 1.17-3.72 2.41-5.76 3.72-2.05 1.32-3.96 2.58-5.73 3.78s-3.02 2.02-3.74 2.45c-1.7 1.4-2.9 2.92-3.58 4.56-0.69 1.63-0.41 3.49 0.84 5.59 0.52 0.87 1.17 1.8 1.96 2.8s1.72 1.66 2.8 2c1.93 0.61 4.04 1.16 6.34 1.65s4.6 0.78 6.9 0.88c2.3 0.09 4.59-0.05 6.87-0.42 2.27-0.38 4.35-1.12 6.22-2.24l15.71-9.35c0.29-0.17 0.2-0.78-0.27-1.82a30.97 30.97 0 0 1-1.34-3.6c-0.42-1.36-0.58-2.74-0.47-4.12 0.1-1.38 0.84-2.48 2.22-3.3 1.23-0.73 2.43-0.93 3.6-0.6s2.17 1.18 2.99 2.55l5.8 9.75c0.77 1.3 0.92 2.49 0.43 3.56s-1.22 2.05-2.21 2.93-2.1 1.69-3.33 2.42-2.14 1.42-2.73 2.07l-11.61 6.62-2.06 1.23-20.49 11.91-0.35 1.38a61.17 61.17 0 0 1 1.92 3.48c0.64 1.23 1.07 2.49 1.29 3.78 0.22 1.28 0.15 2.48-0.23 3.59s-1.3 2.09-2.76 2.96c-1.31 0.78-2.49 1.14-3.51 1.07a5.046 5.046 0 0 1-2.78-1.06c-0.82-0.64-1.57-1.44-2.25-2.4-0.68-0.97-1.31-1.96-1.92-2.97-0.34-0.58-0.86-1.52-1.53-2.83-0.68-1.31-1.24-2.71-1.69-4.2-0.44-1.5-0.63-2.93-0.55-4.29 0.08-1.37 0.66-2.37 1.75-3.02l4.71-2.8-0.26-0.43c-2.05-0.45-4.02-0.91-5.94-1.38-1.91-0.48-3.76-1.09-5.54-1.84s-3.43-1.73-4.93-2.93c-1.51-1.21-2.8-2.71-3.87-4.52-1.76-2.96-2.6-5.93-2.52-8.92 0.08-2.98 0.77-5.81 2.06-8.49s3.05-5.14 5.28-7.4 4.64-4.16 7.24-5.7c3.29-2.03 6.72-3.76 10.25-5.22zm18.91 107.87c-0.12-0.18-0.2-0.35-0.26-0.51-1.56-0.58-2.71-1.05-3.42-1.41-0.72-0.36-1.34-1.25-1.87-2.67-0.68-1.81-0.52-3.31 0.48-4.48 0.99-1.18 2.32-2.08 3.97-2.69 2.05-0.76 4.16-1.29 6.35-1.56 2.18-0.28 4.3-0.8 6.35-1.56a26.4 26.4 0 0 0 1.93-0.79c0.5-0.23 1.07-0.69 1.71-1.38l49.01-18.3c0.12-0.4 0.19-0.7 0.21-0.89s0.03-0.51 0.05-0.96c-0.06-0.16-0.29-0.61-0.71-1.35-0.41-0.74-0.65-1.19-0.71-1.35-0.11-0.05-0.18-0.11-0.21-0.19-0.35-0.94-0.7-2.05-1.04-3.31-0.34-1.27-0.49-2.51-0.45-3.73 0.03-1.22 0.3-2.33 0.78-3.32s1.36-1.72 2.62-2.19c0.47-0.18 0.92-0.37 1.34-0.57s0.9-0.18 1.44 0.07c0.11 0.05 0.38 0.17 0.81 0.37s0.89 0.41 1.38 0.63 0.94 0.41 1.36 0.57 0.69 0.3 0.83 0.43c0.43 0.2 0.71 0.45 0.83 0.77l5.38 14.41c0.24 0.63 0.33 1.36 0.28 2.19s-0.22 1.65-0.49 2.47a7.22 7.22 0 0 1-1.2 2.2c-0.52 0.64-1.14 1.1-1.85 1.36l-20.31 7.59c-0.4 0.15-0.6 0.38-0.61 0.7-0.02 0.32 0.02 0.6 0.11 0.83 0.35 0.94 0.92 1.69 1.72 2.25 0.79 0.56 1.66 1.08 2.61 1.58s1.82 1.05 2.63 1.64c0.81 0.6 1.39 1.37 1.74 2.31l4.32 11.57c0.47 1.26 0.43 2.46-0.13 3.61s-1.04 2.25-1.46 3.3c-0.91 2.13-1.81 3.99-2.69 5.58a37.91 37.91 0 0 1-2.91 4.45 29.168 29.168 0 0 1-3.59 3.9c-1.34 1.22-2.92 2.52-4.73 3.92-0.13 0.14-0.41 0.35-0.83 0.65-0.43 0.29-0.68 0.46-0.76 0.49l-12.52 4.67c-1.03 0.12-1.87 0.23-2.5 0.33s-1.28 0.16-1.95 0.19c-0.66 0.02-1.21 0.07-1.63 0.14-3.13 0.27-6.25 0.2-9.36-0.21s-6.04-1.22-8.78-2.44c-2.74-1.22-5.21-2.9-7.4-5.04s-3.87-4.79-5.05-7.94c-0.65-1.73-1.04-3.51-1.19-5.34s-0.2-3.65-0.15-5.46c-0.01-0.98 0.2-1.85 0.65-2.6 0.44-0.75 0.48-1.59 0.13-2.54-0.08-0.08-0.15-0.21-0.26-0.39zm45.75 16.56c1.95-1.13 3.87-2.91 5.75-5.31 0.39-0.41 0.82-0.98 1.32-1.7 0.49-0.72 0.96-1.52 1.39-2.4s0.73-1.75 0.9-2.62 0.12-1.66-0.14-2.37l-3.31-8.86c-0.44-1.18-1.5-2.15-3.18-2.92s-3.54-1.37-5.59-1.82-4.07-0.68-6.05-0.7-3.45 0.14-4.39 0.5l-12.52 4.67c-0.08 0.03-0.33 0.26-0.75 0.69s-0.95 0.94-1.58 1.53-1.15 1.06-1.57 1.39c-0.34 0.3-0.82 0.87-1.46 1.69s-1.28 1.73-1.94 2.74-1.19 1.97-1.61 2.89-0.54 1.62-0.36 2.09l4.32 11.57c0.11 0.05 0.47 0.23 1.08 0.54s1.39 0.67 2.35 1.07 1.71 0.73 2.25 0.98c3.21 1.4 6.19 1.99 8.94 1.78 2.74-0.22 5.73-0.93 8.96-2.13 2.84-1.07 5.23-2.17 7.19-3.3zm-6.04 113.3 0.07 3.03c0.03 1.43-0.04 2.86-0.22 4.29s-0.25 2.91-0.22 4.42c0.01 0.25 0.03 0.65 0.09 1.2 0.05 0.54 0.08 0.86 0.08 0.94l0.52 0.49 63.55-1.37c0.5-0.01 0.87-0.4 1.11-1.16s0.35-1.48 0.33-2.15l-0.02-0.88a17.08 17.08 0 0 0-0.32-2.96c-0.19-0.96-0.3-1.95-0.32-2.96-0.05-2.19 0.44-4.11 1.45-5.77 1.02-1.66 2.7-2.52 5.05-2.57 1.85-0.04 3.35 0.47 4.51 1.54s1.76 2.53 1.8 4.38c0.03 1.34-0.01 2.52-0.11 3.53-0.11 1.01-0.35 2.28-0.74 3.8l0.16 7.69c0.08 3.53 0.4 7.01 0.98 10.45 0.58 3.43 0.91 6.92 0.98 10.45l0.05 2.52c-0.51 3.71-1.34 7.07-2.49 10.08s-2.67 5.58-4.56 7.73c-1.89 2.14-4.23 3.81-7.02 5.01s-6.08 1.83-9.86 1.91c-1.85 0.04-3.79-0.17-5.81-0.63-2.03-0.46-3.81-1.18-5.34-2.15-0.51-0.41-1.41-1.06-2.69-1.96s-2.38-1.34-3.31-1.32c-0.5 0.01-1.02 0.25-1.56 0.73-0.54 0.47-1.09 1.01-1.67 1.61s-1.11 1.2-1.6 1.8-0.99 1.07-1.48 1.42c-2.41 1.4-4.64 2.45-6.68 3.17-2.05 0.72-4.41 1.1-7.1 1.16-1.93 0.04-3.98-0.13-6.13-0.5-2.15-0.38-4.29-0.94-6.4-1.69-2.12-0.75-4.12-1.7-5.99-2.83-1.87-1.14-3.5-2.45-4.88-3.93-1.22-2.08-2.36-4.13-3.41-6.17a25.081 25.081 0 0 1-2.29-6.57c-0.04-1.68-0.12-4.43-0.24-8.25-0.13-3.82-0.24-8-0.33-12.54-0.1-4.54-0.19-8.72-0.27-12.54s-0.14-6.53-0.18-8.13l-0.03-1.51c-0.04-1.93 0.58-3.5 1.85-4.71s2.83-1.83 4.68-1.87c2.86-0.07 4.86 1.19 6.01 3.77zm30.6 26.58c-0.18-0.25-0.44-0.56-0.78-0.93-0.35-0.37-0.6-0.55-0.77-0.55l-28.11 0.61c-0.76 0.02-1.27 0.51-1.54 1.48-0.28 0.97-0.4 1.71-0.39 2.22 0.06 2.86 0.27 5.69 0.62 8.5s0.61 5.68 0.75 8.62c0.89 2.17 1.85 3.93 2.89 5.3 1.04 1.36 2.22 2.45 3.54 3.27 1.32 0.81 2.82 1.35 4.51 1.6 1.69 0.26 3.62 0.36 5.81 0.32 1.09-0.02 2.35-0.03 3.78-0.02s2.55-0.37 3.38-1.15l5.8-6.05c0.25-0.26 0.55-0.71 0.92-1.34 0.37-0.64 0.55-1.04 0.54-1.21l-0.31-14.24c-0.52-0.66-0.82-1.16-0.91-1.49s-0.14-0.8-0.16-1.38c-0.01-0.59 0.06-1.12 0.22-1.58 0.16-0.47 0.23-0.99 0.22-1.58zm13.1-1.8c-0.94 0.02-1.5 0.47-1.69 1.36s-0.28 1.75-0.26 2.59l0.03 1.51c0.06 2.69 0.16 5.5 0.31 8.44s0.33 5.54 0.55 7.81c0.35 0.58 0.79 1.22 1.31 1.93 0.53 0.7 1.11 1.38 1.77 2.04a10 10 0 0 0 2.14 1.66c0.77 0.44 1.58 0.66 2.44 0.64l8.41-0.18c0.34-0.01 0.68-0.18 1.01-0.53 1.59-1.04 2.74-1.93 3.45-2.66s1.2-1.52 1.48-2.36c0.28-0.85 0.47-1.8 0.58-2.85 0.1-1.05 0.35-2.43 0.74-4.11l-0.36-15.76zm-16.69 62.7c3.01 0.9 5.83 2.09 8.47 3.57 2.63 1.48 5 3.29 7.12 5.42 2.11 2.13 3.72 4.67 4.82 7.64 0.13 0.27 0.31 0.77 0.55 1.48s0.49 1.47 0.76 2.27 0.5 1.54 0.7 2.2c0.2 0.67 0.33 1.13 0.37 1.39 0.28 0.97 0.34 1.94 0.16 2.89s-0.33 1.88-0.47 2.8c-0.77 5.32-2.68 9.63-5.74 12.93-3.06 3.29-6.82 6.24-11.27 8.82-0.55 0.26-1.54 0.56-3 0.91-1.45 0.34-3.02 0.63-4.71 0.85s-3.33 0.39-4.91 0.5c-1.59 0.11-2.76 0.11-3.5 0.01-0.17-0.02-0.52-0.1-1.05-0.21-0.54-0.12-0.89-0.19-1.05-0.22-1.14-0.93-1.83-2.05-2.07-3.35-0.24-1.31-0.38-2.65-0.44-4.01 0.13-0.92 0.39-2.56 0.77-4.92 0.38-2.37 0.77-4.88 1.15-7.54 0.37-2.58 0.7-5.06 1.01-7.43 0.3-2.38 0.52-4.02 0.65-4.94s0.27-2.02 0.41-3.32 0.28-2.57 0.42-3.82 0.26-2.81 0.35-4.66l-0.3-0.55c-0.08-0.01-0.37-0.08-0.87-0.19-0.5-0.12-0.83-0.18-1-0.21-2.43-0.35-4.79-0.24-7.09 0.32s-4.38 1.49-6.23 2.8c-1.85 1.3-3.41 2.93-4.67 4.87s-2.07 4.16-2.43 6.66c-0.04 0.25-0.1 0.81-0.18 1.69s-0.14 1.44-0.18 1.69c0.75 1.3 1.2 2.72 1.36 4.27s0.62 2.93 1.38 4.15c0.63 0.94 1.43 1.84 2.41 2.7s1.91 1.76 2.8 2.69c0.88 0.93 1.59 1.9 2.13 2.92 0.53 1.01 0.71 2.18 0.51 3.51-0.18 1.25-0.7 2.21-1.56 2.9-0.86 0.68-1.88 0.94-3.04 0.77-1.91-0.28-3.58-0.94-5-1.99a57.24 57.24 0 0 1-4.16-3.4c-3.26-3.02-5.38-6.68-6.35-10.98-0.98-4.3-1.15-8.62-0.53-12.94 0.61-4.24 1.99-7.95 4.15-11.12 2.15-3.17 4.81-5.72 7.98-7.64 3.16-1.92 6.69-3.24 10.57-3.96s7.86-0.78 11.94-0.19c2.89 0.41 5.85 1.07 8.86 1.97zm0.16 11.29c-0.25-0.04-0.4 0.11-0.45 0.45l-4.15 28.83c-0.02 0.17 0.05 0.41 0.21 0.73 0.17 0.32 0.32 0.58 0.46 0.77 0.15 0.11 0.44 0.19 0.86 0.25s0.71 0.1 0.87 0.12c2 0.29 3.75 0.03 5.27-0.77s2.78-1.89 3.78-3.28c1.01-1.38 1.82-2.94 2.46-4.68 0.63-1.74 1.06-3.39 1.29-4.97 0.25-1.75 0.28-3.57 0.09-5.46-0.2-1.9-0.68-3.66-1.47-5.31-0.78-1.64-1.87-3.07-3.27-4.29s-3.13-1.98-5.21-2.28c-0.16-0.02-0.41-0.06-0.74-0.11zm-39.8 56.24c0.66 1.57 0.7 3.27 0.13 5.12-0.35 1.12-0.79 2.2-1.33 3.22s-0.99 2.13-1.36 3.34c-0.1 0.32-0.22 0.79-0.37 1.4s-0.23 0.96-0.26 1.04l0.33 0.63c0.32 0.1 0.84 0.28 1.55 0.55 0.71 0.26 1.48 0.55 2.31 0.85s1.61 0.61 2.35 0.93c0.74 0.31 1.27 0.52 1.59 0.62 0.16 0.05 0.54 0.23 1.15 0.55 0.6 0.32 0.97 0.54 1.11 0.67l11.87 3.42 2.29 0.71 14.43 3.68 1.26-0.66c0.12-0.4 0.36-1.08 0.69-2.03 0.34-0.95 0.7-1.98 1.09-3.09s0.77-2.14 1.15-3.07c0.38-0.94 0.63-1.61 0.75-2.01 0.66-1.56 1.7-2.71 3.12-3.46s2.93-0.87 4.54-0.37c1.6 0.5 2.84 1.41 3.71 2.73 0.86 1.32 1.04 2.83 0.51 4.51-0.02 0.08-0.06 0.2-0.11 0.36-0.07 0.24-0.15 0.35-0.23 0.32-0.56 1.23-1.07 2.81-1.54 4.74a57.81 57.81 0 0 1-1.71 5.74c-0.68 1.9-1.5 3.63-2.46 5.18-0.97 1.55-2.19 2.58-3.66 3.09-0.21 0.11-0.6 0.16-1.17 0.16s-1.17 0.01-1.79 0.04c-0.62 0.02-1.18 0.12-1.67 0.27-0.49 0.16-0.78 0.4-0.88 0.72l-0.07 0.24c1.23 3.11 2.25 6.35 3.06 9.73 0.8 3.37 0.69 6.7-0.33 10-0.62 2.01-1.57 3.85-2.83 5.52-1.27 1.67-2.71 3.01-4.34 4s-3.44 1.64-5.42 1.95c-1.99 0.31-4.03 0.14-6.11-0.51-2.97-0.92-5.28-2.41-6.93-4.46s-1.96-4.76-0.91-8.14c0.5-1.61 1.4-2.74 2.7-3.39s2.76-1.04 4.38-1.15 3.24-0.03 4.87 0.26c1.63 0.28 3.01 0.56 4.16 0.83 0.43 0.04 0.7-0.14 0.83-0.54 0.12-0.4 0.21-0.68 0.26-0.84 0.12-0.4 0.22-0.79 0.29-1.16s0-0.77-0.22-1.19c-0.14-0.4-0.46-1.07-0.96-2.01s-1.03-1.95-1.58-3-1.08-2.05-1.58-3-0.83-1.58-1-1.89c-0.22-0.42-0.62-1.05-1.2-1.89s-1.22-1.68-1.93-2.51c-0.71-0.84-1.42-1.58-2.14-2.25-0.72-0.66-1.28-1.06-1.68-1.18l-13.61-4.22c-0.19 0.03-0.62 0.01-1.3-0.07s-1.1-0.14-1.26-0.19c-0.24-0.07-0.73-0.18-1.48-0.33-0.75-0.14-1.53-0.32-2.34-0.53-0.82-0.21-1.59-0.41-2.33-0.59-0.73-0.18-1.26-0.33-1.58-0.43-0.98 0.05-1.65 0.37-2.01 0.96s-0.68 1.33-0.95 2.21-0.48 1.81-0.6 2.78-0.32 1.9-0.6 2.78a9.414 9.414 0 0 1-3.07 4.59c-1.48 1.21-3.18 1.52-5.1 0.92-1.61-0.5-2.76-1.25-3.46-2.26s-1.09-2.17-1.17-3.47 0.03-2.65 0.33-4.05 0.64-2.7 1.01-3.91c0.42-1.37 0.92-2.68 1.49-3.96 0.57-1.27 1.07-2.6 1.49-3.96 0.2-0.64 0.35-1.19 0.44-1.64 0.1-0.46 0.15-1.12 0.16-2l4.26-13.73c0.6-1.93 1.78-3.47 3.55-4.64s3.66-1.44 5.67-0.82c1.84 0.6 3.09 1.67 3.75 3.24zm-26.98 71.16c0.73 0.55 1.35 1.19 1.85 1.91s0.86 1.49 1.08 2.3 0.12 1.63-0.29 2.46l-8.62 17.25 0.39 0.9 33.83 16.91 1.8 1.74 18.88 9.44c0.45 0.22 1.14 0.01 2.08-0.65s1.5-1.08 1.69-1.27c0.04-0.26 0.12-0.71 0.25-1.35s0.29-1.33 0.48-2.09c0.19-0.75 0.38-1.46 0.57-2.11 0.19-0.66 0.34-1.1 0.45-1.32l0.9-1.81c0.64-1.28 1.27-2.21 1.89-2.79 0.62-0.59 1.38-1.31 2.28-2.17 0.6-0.64 1.12-1.22 1.58-1.75 0.45-0.53 0.93-0.92 1.43-1.19 0.51-0.26 1.06-0.39 1.66-0.37s1.39 0.27 2.36 0.76c2.1 1.05 3.14 2.58 3.12 4.59s-0.5 3.95-1.44 5.83c-0.68 1.35-1.49 2.61-2.45 3.78s-1.77 2.43-2.45 3.78c-0.53 1.05-0.96 2.1-1.3 3.16-0.34 1.05-0.77 2.1-1.3 3.16-0.49 0.98-1.13 1.97-1.92 2.99s-1.67 1.89-2.65 2.62a7.49 7.49 0 0 1-3.23 1.41c-1.18 0.21-2.41 0-3.68-0.64l-59.8-29.88-1.57 0.62-7.5 15c-0.37 0.75-0.92 1.3-1.62 1.66-0.7 0.35-1.46 0.56-2.26 0.63s-1.61 0.02-2.44-0.16c-0.82-0.18-1.54-0.42-2.15-0.72-1.38-0.69-2.43-1.66-3.15-2.91s-0.68-2.67 0.11-4.24l21.81-43.64c0.64-1.28 1.69-2.28 3.15-3.01s2.85-0.76 4.15-0.11c0.63 0.3 1.3 0.73 2.03 1.28zm-32.91 68.56c0.81 1.75 0.64 3.45-0.52 5.1l-7.97 11.35 0.52 1.44c0.27 0.19 0.74 0.54 1.4 1.06 0.66 0.51 1.34 1.07 2.04 1.67s1.39 1.15 2.05 1.67c0.66 0.51 1.12 0.87 1.4 1.06 0.09 0.16 0.38 0.47 0.88 0.93 0.5 0.45 0.79 0.76 0.88 0.93l22.66 15.91 8.48-12.07c0.48-0.69 1.1-1.15 1.85-1.4a6.08 6.08 0 0 1 2.33-0.29c0.8 0.05 1.6 0.22 2.39 0.52s1.46 0.64 2.02 1.03c1.12 0.79 1.81 1.68 2.05 2.67s0.25 2 0.01 3.01-0.63 2.02-1.18 3.02-1.09 1.88-1.62 2.64c-0.82 1.17-1.7 2.27-2.63 3.31a34.11 34.11 0 0 0-2.63 3.31c-0.58 0.83-1.08 1.68-1.5 2.57s-0.92 1.75-1.49 2.57c-0.82 1.17-2.06 2.12-3.71 2.87-1.65 0.74-3.2 0.6-4.64-0.41l-38.38-26.95-1.05 0.18-7.68 10.94c-0.43 0.62-1.06 1.03-1.88 1.22-0.82 0.2-1.68 0.26-2.57 0.2-0.9-0.07-1.76-0.26-2.58-0.58s-1.48-0.65-1.97-1c-0.98-0.69-1.78-1.64-2.4-2.84-0.62-1.21-0.52-2.39 0.3-3.56l24.7-35.18c0.87-1.24 1.98-1.92 3.33-2.05s2.62 0.22 3.81 1.06c1.38 0.97 2.49 2.34 3.3 4.09zm52.85 58.75c0.46 2.27-0.04 4.44-1.49 6.5a7.527 7.527 0 0 1-2.91 2.5c-1.17 0.57-2.41 0.87-3.73 0.92-1.32 0.05-2.63-0.1-3.92-0.44-1.3-0.35-2.46-0.88-3.49-1.61-2.06-1.45-3.17-3.35-3.31-5.71s0.47-4.5 1.82-6.43c1.64-2.34 3.71-3.53 6.21-3.57 2.5-0.05 4.88 0.73 7.15 2.32 1.98 1.41 3.21 3.25 3.67 5.52zm-91.69-2.73c-0.65 1.7-1.8 3.52-3.43 5.45l0.01 0.71a73.4 73.4 0 0 0 2.64 3.17c1.03 1.17 1.91 2.29 2.64 3.34l20.94 20.24c0.42 0.41 1.11 0.34 2.05-0.21s2.02-1.09 3.23-1.62 2.53-0.83 3.95-0.91c1.42-0.09 2.86 0.58 4.31 1.98 1.57 1.52 2.1 3.11 1.6 4.79-0.51 1.67-1.4 3.17-2.69 4.5-0.18 0.18-0.44 0.45-0.79 0.82-0.41 0.42-0.64 0.6-0.7 0.55-1.94 1.52-3.6 2.63-4.98 3.34s-2.69 1.06-3.91 1.05-2.46-0.39-3.72-1.14-2.73-1.83-4.42-3.22c-0.12 0-0.21 0.03-0.27 0.09l-0.18 0.18c-0.35 0.36-0.5 0.89-0.46 1.57s0.13 1.44 0.26 2.27 0.27 1.66 0.4 2.49 0.14 1.54 0.04 2.14c-0.43 2.86-0.97 5.81-1.63 8.85s-2.04 5.65-4.15 7.83c-1.28 1.33-2.9 2.37-4.85 3.11a18.17 18.17 0 0 1-12.03 0.39c-1.97-0.62-3.65-1.6-5.04-2.95l-22.39-21.64c-0.43-0.89-0.9-1.6-1.42-2.16-0.51-0.56-1.11-1.16-1.77-1.8-0.18-0.18-0.63-0.56-1.36-1.14l-0.71 0.01c-1.88 1.34-3.84 2.28-5.88 2.82s-4.03-0.12-5.96-1.99c-1.57-1.52-2.16-3-1.77-4.43s1.29-2.88 2.69-4.33l1.31-1.36c0.47-0.48 1.3-1.32 2.5-2.49 1.2-1.18 2.47-2.44 3.81-3.77s2.63-2.57 3.86-3.72 2.08-1.97 2.54-2.45c2.41-1.41 4.59-1.18 6.52 0.69 2.3 2.22 3.14 4.28 2.51 6.2-0.62 1.91-1.81 3.89-3.55 5.94l0.01 0.71 2.75 4.23 13.78 13.32c0.12 0.23 0.38 0.69 0.78 1.37s0.69 1.1 0.87 1.28l0.36 0.36c0.12 0.12 0.51 0.41 1.17 0.87s1.08 0.72 1.26 0.78c0.18 0.18 0.53 0.48 1.04 0.92s1.04 0.89 1.58 1.35 1.07 0.92 1.58 1.35c0.51 0.44 0.86 0.74 1.04 0.92 1.43 0.33 2.63 0.15 3.6-0.55s1.89-1.5 2.77-2.41c1.46-1.51 2.46-3.27 2.99-5.27s0.78-4.07 0.74-6.21-0.28-4.28-0.73-6.41-0.93-4.09-1.44-5.86c0-0.12-0.05-0.4-0.15-0.84s-0.18-0.76-0.24-0.93c-0.13-0.47-0.41-1.57-0.86-3.28l-10.33-9.99c-0.31-0.89-0.67-1.55-1.06-1.99s-0.92-0.98-1.59-1.62l-1.36-1.31c-0.9-0.16-1.78 0.12-2.66 0.85s-1.86 1.41-2.95 2.06c-1.09 0.64-2.24 0.99-3.46 1.04s-2.61-0.68-4.18-2.2c-1.27-1.23-1.77-2.62-1.5-4.17s0.93-2.99 1.98-4.31l7.18-7.44c0.12-0.12 0.47-0.37 1.06-0.73 0.59-0.37 0.94-0.61 1.06-0.73a54.57 54.57 0 0 0 3.21-2.86c1.02-1 2.05-1.79 3.08-2.37s2.08-0.82 3.15-0.72 2.27 0.79 3.6 2.08c2.07 1.97 2.77 3.82 2.12 5.52zm-497.95-530.85c-6.35 27.76-34.8 58.22-57.7 85.29-14.66 16.58-27.44 9.51-33.95-1.55-2.34-6.3 3.86-13.12 10.51-13.77 5.12-0.53 11.25 0.57 13.32-3.31 1.48-2.62-0.8-4.31-1.91-6.52-1.51-2.78-3.62-7.56-4.72-10.65-2.64-18.02 18.92-41.49 35.59-39.02 17.2 0.99 18.02-1.1 13.45-15.96-2.01-7.09 2.18-14.97 10-14.54 9.68 1.16 15.29 8.92 15.41 20.03z"/>
 <path class="st2" d="m563.64 658.5-2.72 19.56"/>
 <path class="st3" d="m550.25 717.68c-0.34 2.97 13.47 13.4 13.47 13.4l-12 33.06c-5.54 0.1-11.1 0.12-16.52 0.05-15.75-0.2-30.42-1.19-40.75-3.52-22.73-5.13-33.38-14.14-42.47-24.25-7.22-8.03-18.05-42.28-8.53-63.62l117.49 5.27-0.65 4.69 9.01-2.49c2.31-0.64 7.01-1.2 13.14-1.55l-14.15 33.63c-0.02 0-17.7 2.36-18.04 5.33z"/>
 <path class="st2" d="m444.27 668.92c-0.88 3.87-4.12 11.85-4.5 20.98m111.95 74.23c34.33-0.59 68.55-3.9 71.43-4.55 1.44-0.33 3.63 8.57 16.08 20.93 10.9 10.82 20.23 6.47 41.57 37.65"/>
 <path d="m364.53 745.05c39.9 0.79 64.95-16.56 79.09-26.54" fill="none" stroke="#020203" stroke-linecap="square" stroke-miterlimit="10" stroke-width="2.7873"/>
 <path class="st2" d="m627.62 766.19-10.83-18.48m-123.54-320.22c-1.79 0.41-3.66 0.7-5.47 1-3.43 0.58-6.71 0.53-9.57-0.13-4.67-1.04-8.21-3.67-9.42-7.68-0.28-0.92-0.43-1.81-0.44-2.65-0.1-5.11 4.74-8.85 15.82-10.96 0 0 1.95-0.31 4.6-0.29 0.15-0.01 0.31 0 0.47 0.01h0.01c5.12 0.11 12.43 1.51 13.69 8.42 1.52 8.35-3.64 10.93-9.69 12.28z"/>
 <path class="st1" d="m481.61 428.18c-1.16 0.13-2.3 0.21-3.4 0.19-4.76-0.06-8.72-1.84-9.76-8.65-0.09-0.59-0.13-1.16-0.1-1.68 0.15-5.65 5.93-7.64 10.32-9.25l1.36-0.27c2.67 2.22 4.1 4.31 4.74 8.22 0.68 4.12-0.58 8.19-3.16 11.44z"/>
 <path class="st5" d="m623.15 401.62-2.62-1.79m-0.01-0.01"/>
 <path class="st3" d="m571.52 568.67c2.77 11.22-1.15 28.21-4.77 47.02-56.62-16.94-135.14 28.94-135.14 28.94-3.57-11.79-17.95-59.72-17.95-59.72-17.05-24.97 3.44-61.9-0.05-92.79 0.14 0.17 0.3 0.37 0.49 0.59l0.21 0.24c0.25 0.29 0.53 0.61 0.83 0.96 0.14 0.16 0.27 0.32 0.42 0.48 9.15 10.61 18.13 17.1 26.97 20.34 0.01 0.01 0.02 0.01 0.04 0.01 10.52 3.85 20.86 3.12 31.16-0.75 0.03-0.01 0.06-0.02 0.09-0.04 10.22-3.84 20.39-10.77 30.66-19.35 0.07-0.05 0.14-0.11 0.21-0.17 3.9-3.27 7.82-6.77 11.75-10.44 1.47 2.83 3.33 4.96 6.16 5.84-35.86 62.27-37.97 92.48 51.26 75.35-1.28 0.95-2.11 2.06-2.34 3.49z"/>
 <path class="st5" d="m473.73 514.02c-4.44 1.83-8.91 3.13-13.21 3.62-6.25 0.7-12.34-0.56-17.95-2.87 10.52 3.85 20.86 3.11 31.16-0.75zm42.7-30c-1 0.99-5.41 5.25-11.75 10.44 3.9-3.27 7.81-6.77 11.75-10.44z"/>
 <path class="st2" d="m563.63 658.5s2.85-10.91 1.44-21.59c-0.72-5.4 0.23-13 1.68-21.22m74.49-168.1c-1.4 1.73-2.65 3.29-3.79 4.74-0.01 0.01-0.03 0.03-0.04 0.05l-0.01 0.01c-0.02 0.02-0.04 0.05-0.06 0.07-0.01 0.01-0.01 0.02-0.03 0.04-0.02 0.04-0.05 0.07-0.08 0.1-0.02 0.03-0.04 0.05-0.06 0.08-0.04 0.04-0.07 0.1-0.11 0.14-0.02 0.02-0.04 0.05-0.06 0.07l-0.21 0.27c-0.02 0.04-0.05 0.07-0.08 0.11-0.04 0.05-0.08 0.11-0.13 0.16-0.04 0.04-0.07 0.09-0.1 0.13-0.04 0.05-0.07 0.1-0.12 0.16-0.01 0.02-0.03 0.04-0.05 0.07-2 2.62-3.56 4.87-4.79 7.07-0.3 0.54-0.59 1.07-0.85 1.61-0.07 0.53-0.21 1.14-0.22 1.58-0.02 1.61 0.68 3.26 1.27 4.75 0.98 2.47 1.72 4.31 3.11 7.11-1.46-0.32-4.15-3.15-4.88-3.86 0.18 3.76 3.68 6.99 4.76 10.49-0.96-1.18-4.77-4.22-6.05-5.06 0.05 2.2 1.21 6.18 0.84 8.35-0.33-1.29-1.93-4.06-2.7-5.14-0.09 1.33-0.16 2.73-0.24 4.24-0.2 3.96-0.37 8.31-0.64 12.88-0.02 0.49-0.05 0.97-0.09 1.47-0.17 2.88-0.39 5.84-0.68 8.82-0.22 2.29-0.5 4.6-0.83 6.9-1.21 8.51-3.22 16.9-6.76 24.02-0.47 1.41-1.17 2.18-1.56 3.62-1.01 3.76-0.39 7.52-0.65 11.36-0.83-1.27-1.48-3.04-2.99-3.73-0.2 1.36-0.03 2.99 0.5 4.27-1.99-0.16-4.14 0.3-5.95 1.13 1.55 0.13 2.23 1.42 2.51 3.47-2.22-0.93-4.79-1.84-7.22-1.83-2.66 0.01-2.7 0.19-5.31 0.79-0.86 0.2-10.42 2.6-13.47 3.42-3.99 1.06-7.39 2.09-9.54 3.64h-0.01l-0.01 0.01c-89.23 17.13-87.11-13.08-51.26-75.35 3.45 0.98 10.16 2.54 17.31 3.81 1.78 0.33 3.59 0.63 5.37 0.9 0.03 0 0.05 0.01 0.09 0.01 8.93 1.35 17.48 1.94 20.28 0.16 0.17-0.11 0.34-0.22 0.54-0.34h0.01c0.13-0.07 0.28-0.16 0.42-0.24 0.01-0.01 0.04-0.01 0.04-0.01 0.47-0.28 0.99-0.59 1.57-0.89l1.64-0.87c1.74-0.91 3.77-1.98 5.91-3.18 3.45-1.9 7.22-4.16 10.62-6.75 0.77-0.61 1.53-1.21 2.27-1.84 0.56-0.48 1.1-0.98 1.63-1.46 0-0.01 0.01-0.02 0.02-0.03 2.64-2.53 4.77-5.31 5.95-8.33 0.04-0.09 0.07-0.18 0.1-0.26 4.47-11.55 7.79-18.93 6.27-23.85 0 0-1.16-1.7-4.02-1.56-10.7 0.53-15-6.67-12.08-7.96 2.76-1.23 10.39-9.15 10.54-9.43 1.54-2.85 1.22-13.9 1.37-15.42 0.43-4.47 1.51-12.44 6.13-14.76 2.27-1.14 3.63-2.18 5.21-2.95 0.11-0.06 0.23-0.12 0.35-0.17 1.44-0.64 2.61-0.89 3.28-0.98 1.19-0.19 2.35-0.06 3.56 0.53 2 0.98 2.08 2.54 2.93 4.24l0.61 1.62 0.01 0.01c0.3 0.61 0.54 1.17 0.7 1.6 0.21 0.53 0.31 0.87 0.31 0.87s0.24-0.12 0.65-0.29c0.26-0.11 0.58-0.24 0.95-0.39 2.22-0.87 6.19-2.12 8.16-1.05 2.85 1.55 3.37 8.1 3.37 8.1s6.42-3.7 9.47-1.16c2.1 1.79 2.02 6.3 1.76 8.88-0.02 0.29-0.05 0.55-0.08 0.78v0.01c-0.08 0.7-0.16 1.12-0.16 1.12s7.75 14.33-4.42 29.3z"/>
 <path class="st5" d="m636.71 453.29 0.13-0.16c0.05-0.07 0.11-0.15 0.17-0.23m-63.15 112.3-0.01 0.01"/>
 <path class="st2" d="m420.18 606.29c4.13 13.6 9.11 30.14 11.42 38.34 4.32 15.32 12.66 24.29 12.66 24.29m57.79-361.27s2.97-15.37 4.15-23.87c1.6-11.49-7.1-25.66-14.83-24.06-6.35 1.31 0.6 9.36 0.6 9.36s-6.96-12.15-11.48-10.36c-8.7 3.46 1.53 11.86 0.44 14.36-0.27 0.62-15.13-29.83-19.16-35-2.27-2.91-7.72-0.45-6.85 3 1.34 5.28 19.04 39.7 17.27 39.65-2.67-0.07-4.6-16.02-10.99-12.42-6.04 4.55 2.32 13.83 1.88 21.7-0.08 1.42-3.02-12.44-3.02-12.44s-3.51 1.87-4.87 4.56c-2.13 4.19-2.95 17.93 1.68 21.14 4.62 3.21 23.26 14.28 22.82 17.2m22.36-12.82s15.06 62.05 10.8 85.35"/>
 <path class="st2" d="m467.81 399.37s16.45-35.45 11.89-78.91"/>
 <path class="st1" d="m369.4 795.12"/>
 <path class="st6" d="m341.53 505.76h43.07m-117.26-24.72 108.99-0.61"/>
 <path class="st1" d="m589.49 480.7"/>
 <path class="st7" d="m413.39 488.75c-0.09-0.24-0.19-0.44-0.32-0.61m217.58-26.46c0.07 0.2 0.05 0.49 0.01 0.81"/>
 <path class="st2" d="m516.43 484.02s2.84-15.57 4.14-18.99c4.51-11.79 32.45-5.78 34.15-12.12s1.69-12.81-2.11-10.68c-8.33 4.67-14.42 1.46-17.65 0.27-10.24-3.75-8.41-14.42-5.6-18.37 5.38-7.58 12.97-10.26 15.92-14.06s4.76-14.08 3.04-15.35c-1.71-1.27-1.21-5.04-3.32-8.42-2.1-3.38-4.75-2.47-8.05-1.83s-31.65 13.6-33.69 13.12-16.24-3.2-19.71-3.49-26.17 11.73-26.17 11.73-7.28-4.09-12.04-7.47c-4.75-3.38-9.14-3.57-12.43-1.77-3.29 1.79-7.95 6.26-6.95 16.22 1.01 9.97 11.24 15.54 11.24 15.54l-11.05 12.41 5.14-2.19-11.26 14.46c0 1.73 4.99-2.27 4.99-0.55 0 1.16-10.39 12.56-10.39 13.71-0.03 0.06 2.83-0.14 2.8-0.08-0.22 0.38-3.37 9.09-4.03 11.87-0.67 2.8-0.71 9.22 0.21 14.13"/>
 <path class="st1" d="m733.08 822.06 6.49 8.37-32.85 24.42s-13.45-18.53-29.29-39.78c0 0 27.77-33.25 40.6-39.04 34.54-15.58 39.13-44.74 55.76-23.11 16.61 21.63-40.71 69.14-40.71 69.14zm-351.54 32.58c-24.43 6.69-41.62-37.89-46.25-64.74l-11.15 0.07-12.81-37.42s26.5-4.58 52.94-9.11c0 0 12.92 38.48 14.72 53.48 4.59 38.05 32.63 49.49 2.55 57.72z"/>
 <path class="st8" d="m186.4 573.8h64.22v-4.27l8.99-0.34c0.95-0.04 1.3-1.25 0.53-1.81-1.47-1.05-2.71-2.5-1.7-4.02 2.68-4.03-1.19-11.86-1.19-11.86s6.64-7.38 9.49-0.39c2.85 7 1.66 12.6 3.32 10.35 0.94-1.28 3.87-3.15 4.51-5.69 0.43-1.74 2.74-13.76 2.74-13.76s-5.93-2.97-4.4-5.45c0.84-1.36 4.35-1.08 5.84-1.1 1.32-0.01 4.48-0.26 5.32 1.1 1.53 2.48-5 5.55-5 5.55s2.89 11.92 3.34 13.66c0.77 2.99 3.56 4.41 4.51 5.69 1.66 2.25-0.04-2.6 2.81-9.6s9.59-1.5 9.59-1.5-3.45 8.96-0.78 12.99c1.11 1.68-0.51 3.26-2.16 4.33-0.66 0.43-0.39 1.44 0.4 1.47l9.59 0.36v4.27h60.4c1.09 0 1.7 1.26 1.03 2.11l-3.56 4.53 1.19 6.64h11.62l-8.06 10.67 4.27 70.55h40.28"/>
 <path class="st8" d="m340.67 669.25-1.41-60.94h11.13l1.41 60.94m-45.96 0v-60.94h17.29l2.08 60.94m-75.58 0-0.15-60.94h-17.29l-1.54 60.94m32.5 0v-60.94h29.84v60.94m559.49-1.33h-117.16l-6.97-183.37h3.78v-8.27h-4.25v-4.36c10.18-2.59 17.2-12.3 16.1-23.06-0.75-7.34-5.11-13.45-11.13-16.73v-9h-3.31v-14.41l4.72-1.66v-7.08h-7.56l-4.16-84.7-3.88 84.7h-7.56v7.08l4.73 1.66v14.41h-3.31v8.85c-7.56 3.97-12.33 12.25-11.41 21.26 0.96 9.34 7.74 16.67 16.37 18.75v4.29h-4.25v8.27h3.78l-7.44 183.35-41.88 0.01"/>
 <path class="st6" d="m421.02 360.2h43.07m-63.73 18.56h21.53"/>
 <path class="st8" d="m586.55 437.14c-0.88-0.21-0.51-0.13-2.7-0.75m71.57 10.37c-5.73 10.99-7.24 9.81-7.24 9.81l-10.82-3.56c1.21-1.55 2.56-3.24 4.09-5.13 11.93-14.67 4.41-29.17 4.41-29.17s0.19 0.4 0.09-0.63v-0.01c0.03-0.23 0.06-0.48 0.08-0.76l12.94 7.84h0.01l3.01 1.82c0.14 0.08 0.22 0.22 0.23 0.38 0.07 1.18-0.13 6.62-6.8 19.41zm-46.37-51.89-6.31-3.79"/>
 <path class="st8" d="m645.6 455.62s0.84 0.48 5.59-8.94c5.79-11.49 7.85-21.79 7.85-21.79m-56.59-30.54c-0.04 0.15-0.09 0.28-0.15 0.42-0.05 0.13-0.11 0.26-0.17 0.38-0.07 0.14-0.14 0.28-0.21 0.41-0.09 0.15-0.17 0.3-0.27 0.44-0.09 0.14-0.2 0.28-0.3 0.42-0.09 0.12-0.19 0.23-0.3 0.35-0.11 0.14-0.23 0.27-0.37 0.4l-0.33 0.3c-0.23 0.2-0.45 0.38-0.68 0.55-0.12 0.09-0.23 0.17-0.36 0.25-0.33 0.22-0.68 0.43-1.05 0.62-0.25 0.13-0.52 0.24-0.78 0.33-0.11 0.04-0.21 0.07-0.32 0.09-0.04 0.01-0.08 0.01-0.12 0.03-0.16 0.04-0.32 0.07-0.47 0.09-0.02 0.01-0.04 0.01-0.07 0.01l-0.47 0.06c-0.88 0.09-1.73 0.04-2.42-0.04-0.25-0.04-0.49-0.07-0.69-0.11-0.14-0.02-0.26-0.04-0.37-0.07-0.33-0.07-0.52-0.13-0.52-0.13v0.01l-0.18 0.42c-0.02 0.04-0.04 0.09-0.07 0.14-0.08 0.18-0.18 0.42-0.32 0.73-0.07 0.15-0.14 0.31-0.22 0.5-0.07 0.14-0.13 0.3-0.2 0.46-0.06 0.13-0.12 0.26-0.18 0.41v0.01c-0.12 0.27-0.26 0.5-0.41 0.7-0.09 0.14-0.2 0.26-0.31 0.37s-0.22 0.21-0.33 0.3c-0.06 0.04-0.12 0.09-0.17 0.12-0.1 0.07-0.2 0.12-0.3 0.17s-0.21 0.09-0.31 0.13c-0.28 0.1-0.55 0.15-0.81 0.18-0.28 0.02-0.54 0.01-0.75 0-0.05-0.01-0.11-0.01-0.16-0.02l-0.13-0.02c-0.07-0.01-0.12-0.03-0.17-0.04-0.04-0.01-0.06-0.01-0.06-0.01-0.66 1.26-1.31 2.57-2 3.95l-0.07 0.13-3.7 7.31-1.66 3.28c0.07 0.02 0.16 0.04 0.24 0.07 0.36 0.12 0.73 0.28 1.08 0.47 0.12 0.06 0.24 0.13 0.36 0.2s0.25 0.15 0.36 0.23c0.36 0.25 0.71 0.54 1.05 0.86 0.12 0.11 0.22 0.23 0.34 0.34 0.01 0.01 0.03 0.04 0.04 0.05 0.14 0.15 0.26 0.3 0.39 0.45a8.302 8.302 0 0 1 0.67 0.97c0.61 1.07 0.92 2.24 0.67 3.38-0.03 0.15-0.05 0.29-0.05 0.43-0.12 2.72 4.44 4.43 1.37 8.96-0.52 0.78-1.59 1.27-2.21 1.58-1.44 0.73-2.88 0.77-3.4 0.94-0.73 0.23 1.93 3.17 1.81 6.1-0.13 3.2-3.04 3.51-3.05 3.64-0.94 10.24 3.12 14.51 2 20.2-0.99 5.06-5.83 6.17-8.46 2.19-3.79-5.71 5.5-23.08-1.33-24.05-7.18-1.02-8.84-10.7-8.84-10.7s-2.05 0.2-3.79-3.72c-1.73-3.93 2.8-7.48 2.8-7.48s-3.79-0.96-3.34-5.4c0.44-4.45 4.49-5.95 4.49-5.95s-7.57-2.93-4.26-13.2c3.32-10.27 12.6-9.12 12.6-9.12s-2.98-3.38 1.27-7.46c4.25-4.09 8.93 0.97 8.93 0.97s4.14-3.88 7.73-3.05c3.46 0.8 5.25 4.12 5.25 4.12 2.94-0.21 7.32 2.55 8.34 6.02 0.07 0.21 0.11 0.41 0.13 0.63v0.04c0.14 1.29 0.01 2.36-0.26 3.26z"/>
 <path class="st8" d="m579.81 418.48a5.595 5.595 0 0 1-0.03-0.01c0.01 0 0.02 0 0.03 0.01zm5.15-10.8c0.68-1.38 1.34-2.69 2-3.95zm5.5-5.13m1.58-3.39s0.19 0.06 0.52 0.13c-0.33-0.06-0.52-0.12-0.52-0.13zm0.88 0.21c0.2 0.04 0.44 0.07 0.69 0.11-0.25-0.03-0.48-0.07-0.69-0.11zm9.53-5.02c0.28-0.9 0.4-1.97 0.29-3.27 0.14 1.17 0.05 2.26-0.29 3.27z"/>
 <path class="st1" d="m581.22 394.85c-3.88 0.08-8.68 2.76-7 7.12 0.82 2.28 4.24 4.83 5.91 6.51-0.21-0.02-5.15-1.19-5.18-1.03-2.28 0.05-4.29 2.35-4.29 4.62 0.07 0.86 0.61 1.77 1.44 2.45-4.22-1.03-3.13-6.74-0.11-8.7 1.14-0.78 2.42-1.15 3.83-1.04l-1.03 2.39c-1.44-1.18-2.46-2.51-3.14-4.24-2.12-5.96 4.25-10.35 9.57-8.08zm10.3-6.62c-0.45-1.41-0.32-3.06 0.41-4.39 0.11-0.22 0.31-0.4 0.63-0.4h1.23l0.43 1.99c0.05 0.25-0.03 0.3-0.15 0.36-1.09 0.49-1.79 1.42-2.55 2.44zm6.65 6.8c0.28-2.04 1.26-3.84 0.35-5.81 2.2 1.16 1.22 4.49-0.35 5.81zm-36.65 3.62c-0.27 2.83-1.08 6.19 0.71 8.67 0.54 0.81 1.21 1.58 2.03 2.29-5.18-1.28-5.48-7.19-2.74-10.96zm-12.23 256.04c1.78 0.35 0.63-0.42 1.78-0.79 0.76-0.14 0.76 0.19 1.97 0.49 1.32 0.32 0.8-3.05-2.21-2.76-3.25 0.3-5.28 2.3-1.54 3.06z"/>
 <path class="st2" d="m582.42 678.75c22.7-1.26 42.83-1.31 65.02 8.08 1.87 0.79 3.38 2.13 4.95 3.26 4.91 0.71 10.78 0.31 14.6-0.14-0.78 1.22-2.23 4.03-3.67 4.28 1.99 0.26 6.74-0.52 9.33 2.37-2.64-0.4-5.44 0.84-6.76 1.77 5.22 3.33 9.69 7.81 12.99 13.02-1.18 0.04-7.8-1.56-8.97-1.53 0.8 1.62 10.46 16.93 16 28.43 0.85 1.77 3.16 5.68 6.01 10.91l32.1 59.47m-221.13-51.72c-3.03 2.44-30.26 27.51-51.6 36.18-12.03 2.65-10.58 7.96-19.04 9.89 1.08-1.69 0.11-5.18 0.11-5.18-3.92 1.52-7.82 4.51-12.34 2.42 2.83-0.91 6.63-4.08 8.09-6.48-2.14 0.22-7.21 0.29-7.21 0.29-7.14-0.39-46.12-6.58-55.31-6.82"/>
 <path class="st1" d="m296.82 1027.9c0.42-0.53 0.87-0.96 1.37-1.31 0.49-0.35 1.03-0.55 1.61-0.62 0.58-0.06 1.21 0.09 1.9 0.46l0.48 0.26c0.08 0.11 0.34 0.34 0.81 0.69 0.46 0.35 0.74 0.55 0.85 0.61l0.16 0.09c0.27 0.14 0.64 0.31 1.11 0.5 0.48 0.19 0.98 0.37 1.5 0.55s1.01 0.34 1.48 0.49c0.46 0.15 0.83 0.29 1.1 0.44 0.43-0.04 0.88-0.3 1.33-0.77 0.46-0.47 0.77-0.86 0.94-1.18l9.88-18.74 0.81-1.51 5.69-10.96c0.63-0.55 1.17-1.26 1.62-2.15 0.44-0.89 0.84-1.65 1.18-2.28l1.07-1.98-0.34-0.9c-0.02-0.08-0.22-0.22-0.59-0.42s-0.66-0.36-0.87-0.47c-0.9-0.48-1.8-0.88-2.69-1.19s-1.79-0.71-2.69-1.19c-1.43-0.77-2.42-1.71-2.98-2.83s-0.42-2.44 0.4-3.98c0.68-1.27 1.63-2.14 2.84-2.62 1.21-0.47 2.5-0.34 3.88 0.4 6.45 3.47 12.85 7 19.18 10.58s12.74 7.08 19.22 10.5c0.74 0.53 1.13 1.39 1.17 2.58 0.04 1.18-0.15 2.17-0.57 2.97l-9.01 16.75c-0.51 0.95-1.27 1.53-2.27 1.75-1 0.21-1.95 0.08-2.85-0.41-0.74-0.4-1.33-1.05-1.75-1.97-0.43-0.91-0.42-1.79 0.04-2.64l4.53-8.41c0.03-0.05 0.04-0.49 0.04-1.31s-0.03-1.45-0.06-1.88c-0.1-0.46-0.3-1.13-0.6-2.01-0.31-0.88-0.68-1.44-1.1-1.67l-15.16-8.16-0.49 0.15c-0.17 0.32-0.51 0.9-1 1.76-0.5 0.86-1.03 1.75-1.59 2.67-0.57 0.92-1.09 1.8-1.57 2.63s-0.81 1.41-0.98 1.72c-0.06 0.11-0.28 0.4-0.67 0.87s-0.61 0.76-0.67 0.87l-0.12 0.24c-0.09 0.29-0.21 0.65-0.37 1.08-0.16 0.42-0.3 0.83-0.4 1.22-0.11 0.39-0.25 0.87-0.43 1.46l0.15 0.49 4.05 2.18c0.81-0.11 1.64-0.1 2.5 0.01 0.86 0.12 1.68-0.05 2.48-0.51 0.68-0.38 1.31-1.05 1.89-2s1.18-1.87 1.8-2.77 1.3-1.59 2.04-2.08 1.64-0.45 2.7 0.12c0.85 0.45 1.37 1.13 1.57 2.02s0.06 1.79-0.42 2.69l-14.01 26.03c-0.91 1.69-2.19 2.1-3.83 1.22-1.06-0.57-1.68-1.33-1.85-2.27-0.17-0.95-0.12-1.94 0.17-2.98s0.7-2.06 1.24-3.07 0.98-1.83 1.32-2.46c0.04-0.32 0.04-0.83 0.01-1.53s-0.14-1.42-0.32-2.17c-0.18-0.74-0.39-1.44-0.62-2.08-0.24-0.64-0.51-1.04-0.83-1.21l-3.41-1.84c-0.21-0.11-0.37-0.06-0.49 0.15-0.16 0.05-0.38 0.2-0.66 0.46l-9.35 17.38 0.29 0.98 8.01 4.31c1.47 0.31 2.71 0.76 3.73 1.34s1.98 1.08 2.88 1.5 1.83 0.63 2.78 0.63 2.12-0.45 3.49-1.35c0.19-0.1 0.46-0.28 0.8-0.54s0.56-0.47 0.64-0.63l4.19-7.78c0.48-0.9 1.23-1.52 2.23-1.87s1.96-0.28 2.86 0.21c1.11 0.6 1.73 1.6 1.87 3 0.13 1.4-0.07 2.61-0.61 3.61l-5.85 10.87c-0.05 0.73-0.17 1.29-0.35 1.7-0.19 0.41-0.44 0.91-0.75 1.49-1.05 1.96-2.45 3.15-4.18 3.58s-3.55 0.14-5.46-0.89c-0.58-0.31-1.14-0.61-1.67-0.9-0.48-0.26-0.95-0.65-1.42-1.17l-26.43-14.22c-0.83-0.11-1.66-0.4-2.49-0.88s-1.57-0.89-2.2-1.24c-0.74-0.4-1.45-0.8-2.12-1.19-0.67-0.4-1.22-0.86-1.65-1.4s-0.67-1.13-0.73-1.78 0.15-1.42 0.64-2.32c0.23-0.52 0.58-1.05 1-1.57zm68.5 34.15c0.16-0.36 0.49-0.76 0.98-1.23l3.66-9.98c0.29-0.79 0.83-1.31 1.63-1.56s1.56-0.24 2.29 0.03c0.34 0.12 0.7 0.31 1.1 0.55 0.39 0.24 0.68 0.55 0.86 0.94 0.23 0.6 0.25 1.23 0.07 1.9s-0.19 1.29-0.01 1.87c0.36 1.28 0.72 2.52 1.09 3.71 0.36 1.19 0.84 2.29 1.43 3.31s1.32 1.93 2.21 2.73c0.89 0.81 2.01 1.46 3.36 1.95 1.18 0.43 2.43 0.75 3.73 0.94s2.56 0.19 3.75-0.02c1.19-0.2 2.29-0.65 3.28-1.34s1.73-1.72 2.23-3.07c0.35-0.96 0.48-1.78 0.37-2.45-0.1-0.68-0.56-1.39-1.38-2.14-1.54-1.2-3.23-2.27-5.06-3.2-1.84-0.93-3.64-1.85-5.42-2.76a53.83 53.83 0 0 1-5.03-2.9c-1.58-1.03-2.83-2.22-3.77-3.59s-1.5-2.98-1.68-4.84 0.2-4.08 1.16-6.68c1.1-2.99 2.69-5.09 4.77-6.32 2.08-1.22 4.68-1.9 7.8-2.03 0.72-0.05 1.47-0.05 2.25 0.01s1.53 0.23 2.27 0.49l0.76 0.28c1.93 1.03 3.84 2.23 5.74 3.59 1.9 1.37 3.47 2.96 4.73 4.76 0.5-0.14 0.95-0.36 1.35-0.66s0.79-0.58 1.17-0.82c0.38-0.25 0.78-0.42 1.2-0.52s0.91-0.05 1.48 0.16c0.79 0.29 1.4 0.85 1.83 1.68s0.47 1.63 0.13 2.4c-0.12 0.34-0.33 0.95-0.63 1.83-0.29 0.89-0.61 1.83-0.94 2.82-0.33 1-0.63 1.94-0.9 2.84-0.26 0.9-0.46 1.51-0.58 1.85l-0.37 1.02c-0.37 1.02-1.05 1.94-2.02 2.76-0.98 0.83-2.05 1.02-3.24 0.59-1.01-0.37-1.65-1.12-1.92-2.24-0.26-1.12-0.43-2.35-0.52-3.69a26.96 26.96 0 0 0-0.55-3.99c-0.28-1.32-0.98-2.38-2.1-3.17-0.71-0.51-1.26-0.89-1.65-1.13s-0.78-0.46-1.15-0.66-0.79-0.38-1.24-0.55-1.07-0.39-1.86-0.68c-0.23-0.08-0.74-0.26-1.54-0.52s-1.34-0.44-1.62-0.55c-0.57-0.02-1.17 0.05-1.8 0.2s-1.25 0.39-1.85 0.71-1.13 0.72-1.59 1.19-0.78 0.96-0.97 1.47c-0.48 1.3-0.51 2.4-0.11 3.32 0.4 0.91 1.11 1.72 2.14 2.42 3.2 1.05 6.33 2.45 9.4 4.22 3.06 1.76 5.82 3.77 8.26 6.01 0.97 1.89 1.65 3.92 2.04 6.08s0.2 4.28-0.56 6.37c-0.79 2.14-1.96 3.95-3.53 5.43s-3.34 2.6-5.32 3.38a17.7 17.7 0 0 1-6.21 1.23c-2.16 0.04-4.25-0.31-6.28-1.06-0.34-0.12-0.78-0.3-1.34-0.54l-0.91-0.38c-0.11-0.04-0.34-0.17-0.67-0.39-0.34-0.22-0.7-0.46-1.08-0.73s-0.75-0.53-1.1-0.79-0.61-0.44-0.75-0.56c-0.91-0.65-1.61-1.53-2.1-2.64s-1.12-2.09-1.89-2.95c-0.4 0.05-0.77 0.31-1.11 0.79s-0.71 0.99-1.13 1.51-0.95 0.92-1.59 1.19c-0.65 0.27-1.48 0.23-2.49-0.15-1.24-0.46-1.89-1.25-1.95-2.4-0.06-1.14 0.09-2.22 0.47-3.24 0.17-0.59 0.36-1.05 0.52-1.41zm68.77 3.86c0.41-2.24 1.2-4.24 2.36-6l2.32-9.71-11.05-2.63c-0.82-0.2-1.38-0.76-1.68-1.7s-0.37-1.75-0.2-2.45c0.25-1.05 0.8-1.84 1.63-2.38 0.84-0.54 1.69-1.05 2.54-1.52 0.84-0.42 1.75-0.54 2.73-0.37s1.96 0.37 2.96 0.61c1.05 0.25 2.05 0.38 3.01 0.39s1.87-0.38 2.73-1.17c0.79-0.74 1.37-1.85 1.72-3.32a74.3 74.3 0 0 1 1.17-4.33c0.43-1.42 1.03-2.58 1.8-3.48s2-1.15 3.7-0.75 2.61 1.17 2.74 2.28c0.13 1.12 0.03 2.38-0.3 3.79-0.32 1.35-0.71 2.66-1.17 3.91-0.45 1.26-0.85 2.59-1.19 4-0.08 0.35-0.21 0.88-0.38 1.59s-0.23 1.1-0.19 1.17l0.47 0.76c0.04 0.07 0.45 0.2 1.21 0.38 0.82 0.19 1.46 0.35 1.93 0.46 1.23 0.29 2.43 0.5 3.6 0.63s2.35 0.33 3.52 0.61c1.34 0.32 2.33 1.11 2.96 2.37 0.62 1.26 0.79 2.51 0.5 3.73-0.28 1.17-0.89 2.09-1.82 2.76s-1.99 0.87-3.15 0.59c-1.46-0.35-2.77-0.86-3.94-1.54s-2.6-1.22-4.29-1.63c-0.35-0.08-0.87-0.19-1.54-0.32-0.68-0.13-1.06-0.17-1.13-0.13l-1.28 0.71-5.79 24.3c-0.11 0.47-0.08 1.03 0.11 1.69 0.18 0.66 0.46 1.31 0.83 1.95s0.8 1.22 1.3 1.74c0.49 0.52 1 0.84 1.53 0.97 1.4 0.33 2.59 0.26 3.57-0.21 0.98-0.48 1.81-1.16 2.48-2.05s1.28-1.87 1.82-2.95a51.25 51.25 0 0 1 1.59-3c0.53-0.92 1.14-1.66 1.82-2.21 0.69-0.55 1.52-0.7 2.52-0.46 1.46 0.35 2.36 1.12 2.69 2.31s0.36 2.4 0.06 3.63c-0.47 1.99-1.25 3.93-2.32 5.84a19.535 19.535 0 0 1-3.91 4.95 15.208 15.208 0 0 1-5.23 3.11c-1.95 0.68-4.04 0.75-6.26 0.22-0.88-0.21-1.54-0.4-2-0.57-0.45-0.17-0.85-0.37-1.2-0.61s-0.68-0.53-0.99-0.88c-0.32-0.35-0.74-0.84-1.27-1.46-0.06-0.01-0.22-0.13-0.47-0.34-0.26-0.22-0.52-0.43-0.77-0.65-0.26-0.21-0.52-0.42-0.78-0.6-0.26-0.19-0.42-0.32-0.46-0.39-1.95-2.44-3.03-4.85-3.23-7.24s0.04-5.05 0.74-7.96c0.47-2.05 0.92-4.19 1.33-6.44zm47.55 21.63c0.97-1.14 2.54-1.9 4.71-2.28l1.16 0.15c2.2 0.29 3.75 1.18 4.65 2.66 0.89 1.48 1.2 3.27 0.92 5.35-0.28 2.09-1.09 3.78-2.45 5.08-1.36 1.31-3.14 1.81-5.34 1.52-2.09-0.28-3.59-1.13-4.52-2.56s-1.27-3.12-1-5.09c0.28-2.07 0.9-3.68 1.87-4.83zm73.64 11.96c-0.61 0.56-1.18 1.17-1.69 1.82-0.52 0.65-1.07 1.24-1.65 1.77s-1.32 0.81-2.22 0.85c-1.56 0.06-2.66-0.31-3.29-1.1s-0.97-1.9-1.02-3.35c-0.17-4.68 0.68-9.07 2.55-13.17 1.87-4.09 4.61-7.62 8.24-10.57a14.02 14.02 0 0 1 3.98-2.31c1.42-0.53 2.75-1.24 3.98-2.13 0.12-0.12 0.41-0.39 0.87-0.8 0.47-0.41 0.76-0.64 0.88-0.71 0.06-0.06 0.27-0.14 0.62-0.25 0.36-0.1 0.6-0.16 0.72-0.16 0.06 0 0.28-0.02 0.67-0.07 0.39-0.04 0.81-0.1 1.26-0.18s0.85-0.13 1.21-0.18c0.36-0.04 0.6-0.07 0.72-0.07 1.55-0.42 2.87-1.24 3.97-2.49 1.1-1.24 2.05-2.48 2.84-3.71 0.12-0.12 0.23-0.37 0.34-0.73l-0.28-7.75c0-0.06-0.23-0.49-0.68-1.28-0.45-0.8-0.83-1.43-1.15-1.9-1.2-1.76-2.82-2.8-4.84-3.12-2.03-0.32-4.06-0.44-6.1-0.37-0.78 0.03-1.47 0.07-2.07 0.12s-1.2 0.13-1.8 0.24-1.21 0.27-1.83 0.47-1.32 0.5-2.09 0.89c-0.41 0.32-0.74 0.66-1 1.03s-0.38 0.82-0.36 1.37c0.01 0.3 0.13 0.63 0.35 0.98s0.48 0.75 0.76 1.19c0.29 0.44 0.56 0.93 0.82 1.46s0.4 1.16 0.43 1.88c0.07 1.98-0.4 3.82-1.43 5.51-1.02 1.69-2.65 2.57-4.87 2.65-1.08 0.04-2.04-0.23-2.87-0.8s-1.53-1.3-2.11-2.18c-0.57-0.88-1.03-1.84-1.37-2.88s-0.52-2.01-0.55-2.91c-0.04-1.2 0.15-2.4 0.6-3.58 0.44-1.19 0.88-2.3 1.32-3.34a17.64 17.64 0 0 1 2.86-4.52 19.11 19.11 0 0 1 4.07-3.53c1.53-0.99 3.17-1.75 4.92-2.29s3.53-0.85 5.33-0.91c2.34-0.08 4.68 0.15 7.01 0.7s4.48 1.43 6.45 2.66c1.97 1.22 3.66 2.76 5.08 4.6s2.35 4.02 2.8 6.53c0.07 0.3 0.14 0.91 0.2 1.84s0.1 1.55 0.11 1.85c0.1 2.94-0.15 5.55-0.76 7.83s-1.56 4.29-2.85 6.05-2.92 3.29-4.89 4.59-4.23 2.45-6.78 3.44c-1.31 0.53-2.58 0.93-3.83 1.22s-2.53 0.78-3.82 1.49c-0.3 0.13-0.68 0.33-1.15 0.58-0.47 0.26-0.93 0.52-1.37 0.77-0.44 0.26-0.99 0.55-1.64 0.87l-4.68 5.49c-0.05 0.3-0.07 0.51-0.07 0.63s0.01 0.33 0.02 0.63 0.17 0.48 0.47 0.52c0.65-0.2 1.22-0.34 1.7-0.42s1.05-0.13 1.71-0.15c1.5-0.05 2.89 0.18 4.17 0.71s2.52 1.1 3.71 1.72 2.42 1.19 3.67 1.72 2.63 0.76 4.13 0.71c1.14-0.04 2.05-0.12 2.74-0.23s1.66-0.34 2.91-0.69c0.82-0.69 1.33-1.63 1.52-2.8 0.2-1.18 0.38-2.33 0.55-3.45s0.48-2.09 0.93-2.92 1.34-1.26 2.66-1.31c0.9-0.03 1.57 0.17 2.01 0.6 0.43 0.44 0.76 0.98 0.96 1.63s0.32 1.37 0.35 2.15c0.02 0.72 0.05 1.41 0.07 2.07 0.12 3.3-0.47 5.94-1.75 7.91s-3.5 3.58-6.64 4.83c-0.89 0.39-1.63 0.81-2.21 1.25-0.59 0.44-1.39 0.68-2.41 0.72-1.08 0.04-1.93-0.16-2.55-0.59s-1.38-0.78-2.29-1.05c-0.06 0-0.24-0.02-0.54-0.07l-0.91-0.15c-0.3-0.05-0.61-0.11-0.91-0.19-0.31-0.08-0.49-0.12-0.54-0.12-0.18-0.05-0.58-0.23-1.19-0.54s-1.29-0.63-2.02-0.97c-0.73-0.33-1.41-0.64-2.02-0.92s-1.01-0.47-1.19-0.59c-0.55-0.22-1.14-0.44-1.78-0.66s-1.29-0.32-1.95-0.29c-0.86 0.05-1.62 0.35-2.23 0.91zm52.07-37.4 0.03-7.51c0.05-1.41 0.37-2.77 0.97-4.06 0.59-1.3 1.14-2.6 1.63-3.91 0.56-1.63 1.3-3.24 2.2-4.83 0.9-1.6 1.96-3.05 3.16-4.36s2.55-2.44 4.06-3.38 3.18-1.58 5.02-1.91c3.61-0.65 6.97-0.27 10.09 1.12 3.12 1.4 5.89 3.39 8.3 5.98 2.42 2.59 4.43 5.54 6.03 8.86s2.69 6.57 3.26 9.76c1.16 6.51 1.31 12.71 0.45 18.6-0.87 5.89-3.33 11.52-7.37 16.88-0.88 0.89-2.15 1.54-3.81 1.96s-3.09 0.74-4.27 0.95c-1.24 0.22-2.6 0.41-4.07 0.55s-2.84 0.08-4.11-0.18c-2.54-0.52-4.98-1.79-7.32-3.82-2.35-2.02-4.46-4.37-6.35-7.06a49.01 49.01 0 0 1-4.75-8.35c-1.28-2.88-2.12-5.45-2.52-7.7-0.43-2.37-0.64-4.9-0.63-7.59zm10.63 11.83c0.84 2.29 1.84 4.46 3 6.51 0.45 0.78 0.98 1.47 1.61 2.09s1.19 1.28 1.68 1.99c0.08 0.11 0.17 0.25 0.26 0.41 0.09 0.17 0.16 0.24 0.22 0.23 0.86 0.7 1.7 1.25 2.54 1.65 0.83 0.4 1.72 0.85 2.67 1.35l8.61-1.54c0.12-0.02 0.37-0.21 0.77-0.55 0.4-0.35 0.67-0.62 0.81-0.83 1.75-2.14 3.11-4.52 4.08-7.14 0.97-2.61 1.44-5.32 1.43-8.13 0-0.67-0.03-1.25-0.08-1.73-0.06-0.48-0.1-0.91-0.14-1.3s-0.08-0.79-0.13-1.21c-0.04-0.42-0.03-0.91 0.06-1.47-0.03-0.18-0.08-0.44-0.14-0.8-0.07-0.41-0.14-0.86-0.2-1.34s-0.12-0.92-0.19-1.34c-0.07-0.41-0.13-0.71-0.16-0.89-0.09-0.47-0.18-1.03-0.3-1.69a30.1 30.1 0 0 0-0.48-2.16c-0.19-0.73-0.39-1.44-0.61-2.13s-0.48-1.25-0.8-1.69l-4.76-6.65c-0.08-0.11-0.34-0.34-0.76-0.69-0.43-0.35-0.75-0.63-0.97-0.83-0.14-0.1-0.38-0.27-0.73-0.51s-0.71-0.5-1.1-0.77c-0.38-0.27-0.75-0.52-1.1-0.76s-0.59-0.41-0.73-0.51c-1.26-0.2-2.33-0.24-3.22-0.11s-1.96 0.3-3.2 0.53c-1.07 0.19-1.94 0.39-2.64 0.61-0.69 0.22-1.3 0.51-1.81 0.87-0.52 0.37-0.98 0.85-1.39 1.44s-0.87 1.36-1.37 2.31c-1.73 3.3-2.75 6.55-3.06 9.75s-0.15 6.57 0.49 10.12c0.38 2.32 1 4.62 1.84 6.91zm63.53 10.23c-0.25-0.36-0.45-0.8-0.62-1.31a8.3 8.3 0 0 1-0.36-1.68c-0.07-0.61-0.06-1.21 0.02-1.81 0.09-0.6 0.31-1.14 0.65-1.64 0.34-0.49 0.84-0.81 1.49-0.96 0.29-0.09 0.87-0.3 1.74-0.62s1.45-0.52 1.74-0.62c1.26-0.41 2.47-0.73 3.63-0.95s2.34-0.53 3.54-0.92l1.88-0.62c0.15-0.11 0.21-0.37 0.17-0.77s-0.09-0.85-0.16-1.37c-0.07-0.51-0.18-1.02-0.31-1.51s-0.2-0.84-0.19-1.03c-1.63-4.78-3.09-9.43-4.39-13.97s-2.7-9.12-4.22-13.74c-0.07-0.23-0.19-0.52-0.34-0.89-0.15-0.36-0.23-0.57-0.25-0.63-0.24-0.74-0.57-1.68-0.97-2.81s-0.79-2.22-1.17-3.27-0.88-2.35-1.52-3.91l-0.43-0.43-12.42 4.07c-0.97 0.32-1.91 0.2-2.82-0.36s-1.5-1.26-1.78-2.12c-0.66-2-0.48-3.45 0.52-4.34 1-0.9 2.41-1.65 4.24-2.24l0.17-0.06c0.51-0.17 1.42-0.45 2.71-0.84s2.64-0.8 4.05-1.23 2.75-0.82 4.02-1.18c1.27-0.35 2.17-0.62 2.68-0.78 0.99-0.07 1.89 0.11 2.69 0.54 0.81 0.43 1.5 1.02 2.1 1.78 0.59 0.75 1.1 1.57 1.51 2.44 0.41 0.88 0.76 1.74 1.04 2.6 0.37 1.14 0.66 2.25 0.85 3.32s0.48 2.18 0.85 3.32 0.81 2.22 1.3 3.23 0.92 2.09 1.29 3.23c0.21 0.63 0.42 1.28 0.65 1.97 0.21 0.63 0.27 1.3 0.19 2.02l8 24.41 0.57 0.57c0.09 0.1 0.26 0.23 0.51 0.4l11.39-3.73c0.57-0.19 1.15-0.2 1.74-0.05 0.59 0.16 1.14 0.4 1.66 0.73 0.52 0.34 0.98 0.74 1.39 1.2 0.41 0.47 0.68 0.93 0.83 1.39 0.21 0.63 0.2 1.25-0.01 1.85-0.21 0.61-0.55 1.16-1.02 1.66s-0.99 0.94-1.56 1.32-1.14 0.66-1.72 0.85c-0.91 0.3-1.79 0.52-2.62 0.67-0.84 0.15-1.74 0.38-2.71 0.7-0.69 0.22-1.48 0.47-2.37 0.73-0.9 0.26-1.62 0.71-2.17 1.33l-10.02 3.28c-0.29 0.47-0.64 0.9-1.05 1.29s-0.87 0.67-1.39 0.83c-0.68 0.22-1.23 0.25-1.64 0.06-0.41-0.18-0.94-0.23-1.61-0.14-0.12 0.04-0.36 0.1-0.74 0.2-0.38 0.09-0.81 0.19-1.28 0.28-0.48 0.09-0.92 0.19-1.33 0.29s-0.64 0.16-0.7 0.18c-0.17 0.06-0.46 0.1-0.86 0.14s-0.83 0.07-1.3 0.09c-0.47 0.03-0.9 0.06-1.3 0.09-0.4 0.04-0.69 0.05-0.88 0.05-0.79-0.01-1.34-0.22-1.58-0.58zm47.65-55.76c-1.22-3.98-1.63-8.17-1.22-12.57 0.06-0.16 0.13-0.53 0.22-1.11s0.16-0.94 0.22-1.11c0.03-0.08 0.07-0.3 0.13-0.66s0.12-0.76 0.18-1.19 0.11-0.84 0.16-1.23 0.08-0.62 0.11-0.7c0.11-0.32 0.28-0.9 0.51-1.75 0.23-0.84 0.49-1.74 0.8-2.69s0.6-1.83 0.88-2.63 0.48-1.36 0.59-1.69a62.8 62.8 0 0 0 1.97-2.55c0.52-0.72 1.03-1.38 1.54-1.99s1.11-1.19 1.82-1.73c0.7-0.54 1.65-1.1 2.84-1.68 1.46-0.71 2.93-1.18 4.41-1.43s2.9-0.21 4.25 0.1 2.59 0.91 3.72 1.8 2.09 2.14 2.87 3.77c0.84 1.73 0.98 3.35 0.44 4.84-0.55 1.5-1.68 2.67-3.41 3.5-1.95 0.94-3.58 1.01-4.9 0.22-1.32-0.8-2.61-1.96-3.88-3.48-0.24-0.22-0.47-0.32-0.7-0.31s-0.48 0.08-0.75 0.21l-0.49 0.24c-0.98 1.01-1.91 2.41-2.78 4.19-0.87 1.79-1.56 3.69-2.05 5.7-0.5 2.01-0.76 3.99-0.79 5.93-0.02 1.95 0.27 3.57 0.9 4.87l0.81-0.39c0.54-0.53 1.01-0.99 1.39-1.37s0.76-0.78 1.13-1.19 0.66-0.74 0.88-0.98c0.3-0.34 0.62-0.88 0.97-1.62 0.35-0.73 0.73-1.21 1.17-1.41l4.38-2.12c0.91 0.09 1.82 0.11 2.72 0.04s1.79-0.16 2.66-0.29c0.87-0.12 1.76-0.22 2.66-0.29s1.81-0.06 2.72 0.04c1.26 0.13 2.63 0.61 4.11 1.47 1.48 0.85 2.92 1.86 4.31 3.02 1.4 1.16 2.65 2.37 3.76 3.64 1.11 1.26 1.92 2.41 2.41 3.44l0.55 1.14c0.79 3.02 1.32 5.9 1.58 8.65 0.26 2.74 0.08 5.28-0.53 7.61s-1.73 4.46-3.37 6.38c-1.64 1.93-3.94 3.61-6.92 5.05-3.03 1.46-5.83 2.25-8.41 2.37-2.58 0.11-4.97-0.3-7.16-1.25-2.19-0.94-4.27-2.34-6.23-4.2-1.97-1.85-3.84-4.02-5.64-6.49-0.03-0.05-0.15-0.21-0.38-0.47-0.22-0.26-0.46-0.53-0.69-0.81-0.24-0.29-0.45-0.55-0.63-0.8-0.18-0.24-0.29-0.39-0.32-0.45l-0.9-1.87c-1.86-3.83-3.4-7.74-4.62-11.72zm16.32 14.53c0.86 1.02 1.83 1.85 2.91 2.5s2.31 1.12 3.69 1.42 3.02 0.56 4.93 0.77c0.08 0.03 0.21 0.05 0.38 0.07s0.31 0 0.42-0.05c0.16-0.08 0.56-0.25 1.2-0.53 0.63-0.27 1.03-0.45 1.19-0.53 2.49-1.2 4.28-2.82 5.37-4.84 1.09-2.03 1.76-4.37 2.01-7.03l0.01-0.81-3.53-7.3c-0.34-0.7-1.03-1.42-2.09-2.14a17.4 17.4 0 0 0-3.44-1.84c-1.24-0.5-2.47-0.84-3.7-1.02-1.22-0.18-2.18-0.1-2.89 0.24l-7.3 3.53c-0.06 0.03-0.27 0.28-0.64 0.76s-0.62 0.85-0.76 1.12c-1.29 2.03-1.91 3.95-1.87 5.76 0.04 1.82 0.56 3.75 1.55 5.8 0.86 1.72 1.71 3.1 2.56 4.12z"/>
 <path class="st9" d="m809.96 975.51s-0.82-4.87-0.08-9.25 3.27-10.68 3.27-10.68 6.58 5.02 8.63 8.56l5.39 9.31s-2 2.24-2.55 3.98c-0.54 1.74-1.28 5.2-1.28 5.2"/>
 <path class="st9" d="m815.29 957.32s0.89-5.77 5.39-11.07c0 0 6.26 4.84 7.67 10.3m5.58 51.05s1.99-1.63 2.33-7.32c5.07-0.81001 10.12-1.63 14.01-5.99 3.89-4.37 9.34-11.11 11.2-19.65-10.25 0.54-14.45 5.04-14.45 5.04s-7.86 7-10.2 11.79-2.97 5.85-2.97 5.85-0.64-1.05-3.07-5.8c-2.42-4.75-10.4-11.61-10.4-11.61s-4.28-4.42-14.54-4.79c2 8.51 7.57 15.15 11.53 19.45s9.02 5.03 14.11 5.75c0.43 5.68 2.45 7.28 2.45 7.28z"/>
 <path class="st9" d="m857.35 975.11s0.74-4.89-0.08-9.25c-0.81-4.36-3.45-10.62-3.45-10.62s-6.49 5.13-8.49 8.7c-1.99 3.57-5.23 9.4-5.23 9.4s2.04 2.2 2.62 3.93c0.57 1.73 1.37 5.18 1.37 5.18"/>
 <path class="st9" d="m840.11 973.34s-5.64-4.87-6.26-4.97c-0.61 0.11-6.68 5.08-6.68 5.08m17.55-8.41s-2.92-5.3-4.6-7.15-6.27-5.65-6.27-5.65-5.31 3.89-6.96 5.76-4.48 7.22-4.48 7.22"/>
 <path class="st9" d="m851.71 957.01s-0.99-5.76-5.58-10.97c0 0-6.18 4.95-7.49 10.43"/>
 <path class="st9" d="m843.26 948.77s-1.72-3.99-4.75-7.34c-3.04-3.37-4.65-3.66-4.65-3.66s-2.45 0.52-5.62 3.74-4.63 7.42-4.63 7.42m-603.59 26.58s-0.82-4.87-0.08-9.25 3.27-10.68 3.27-10.68 6.58 5.02 8.63 8.56l5.39 9.31s-2 2.24-2.55 3.98c-0.54 1.74-1.28 5.2-1.28 5.2"/>
 <path class="st9" d="m225.36 957.32s0.89-5.77 5.39-11.07c0 0 6.26 4.84 7.67 10.3m5.57 51.05s1.99-1.63 2.33-7.32c5.07-0.81001 10.12-1.63 14.01-5.99 3.89-4.37 9.34-11.11 11.2-19.65-10.25 0.54-14.45 5.04-14.45 5.04s-7.86 7-10.2 11.79-2.97 5.85-2.97 5.85-0.64-1.05-3.07-5.8c-2.42-4.75-10.4-11.61-10.4-11.61s-4.28-4.42-14.54-4.79c2 8.51 7.57 15.15 11.53 19.45s9.02 5.03 14.11 5.75c0.43 5.68 2.45 7.28 2.45 7.28z"/>
 <path class="st9" d="m267.41 975.11s0.74-4.89-0.08-9.25c-0.81-4.36-3.45-10.62-3.45-10.62s-6.49 5.13-8.49 8.7c-1.99 3.57-5.23 9.4-5.23 9.4s2.04 2.2 2.62 3.93c0.57 1.73 1.37 5.18 1.37 5.18"/>
 <path class="st9" d="m250.17 973.34s-5.64-4.87-6.26-4.97c-0.61 0.11-6.68 5.08-6.68 5.08m17.55-8.41s-2.92-5.3-4.6-7.15-6.27-5.65-6.27-5.65-5.31 3.89-6.96 5.76-4.48 7.22-4.48 7.22"/>
 <path class="st9" d="m261.77 957.01s-0.99-5.76-5.58-10.97c0 0-6.18 4.95-7.49 10.43"/>
 <path class="st9" d="m253.32 948.77s-1.72-3.99-4.75-7.34c-3.04-3.37-4.65-3.66-4.65-3.66s-2.45 0.52-5.62 3.74-4.63 7.42-4.63 7.42"/>
 <path class="st10" d="m472.37 964.61s-1.35 12.5 3.01 16.67 13.76 6.5 16.59 7.35c0 0 1.61-10.21-0.44-14.32-0.14-0.28-0.28-0.56-0.41-0.84a12.2 12.2 0 0 0-8.19-6.45z"/>
 <path class="st11" d="m452.02 960.02s-1.79 12.45 2.55 16.83 13.92 7.15 16.81 8.14c0 0 1.99-10.15 0.01-14.35-0.14-0.29-0.27-0.57-0.4-0.86-1.57-3.35-4.58-5.85-8.21-6.84z"/>
 <path class="st12" d="m431.7 954.4s-2.11 12.4 2.19 16.92 13.94 7.59 16.85 8.67c0 0 2.25-10.09 0.35-14.36-0.13-0.29-0.26-0.58-0.38-0.87-1.51-3.4-4.5-6-8.16-7.1z"/>
 <path class="st10" d="m472.69 964.46s3.64-12.03 9.28-14.17 15.2-0.6 18.15-0.29c0 0-2.51 10.03-6 13.01-0.24 0.2-0.47 0.41-0.71 0.61a12.195 12.195 0 0 1-10.06 2.73z"/>
 <path class="st10" d="m452.03 959.99s4.32-11.81 10.07-13.62 15.21 0.25 18.14 0.74c0 0-3.07 9.87-6.72 12.65-0.25 0.19-0.5 0.38-0.74 0.57-2.9 2.21-6.65 3-10.2 2.16z"/>
 <path class="st10" d="m431.71 954.35s4.99-11.54 10.84-13.02 15.17 1.13 18.06 1.79c0 0-3.63 9.68-7.44 12.24-0.26 0.18-0.52 0.35-0.77 0.53a12.22 12.22 0 0 1-10.31 1.57zm54.01 13.13s9.58 8.59 14.61 9.32c5.89 0.86 12.56-5.35 12.56-5.35s-4.64-7.89-10.19-8.7c-5.37-0.77-16.98 4.73-16.98 4.73z"/>
 <path class="st12" d="m411.88 947.8s-2.76 12.27 1.29 17.01 13.52 8.31 16.37 9.55c0 0 2.78-9.96 1.11-14.32-0.12-0.3-0.22-0.6-0.34-0.89-1.33-3.47-4.18-6.23-7.77-7.52z"/>
 <path class="st13" d="m412.08 947.87s5.01-11.44 10.92-12.78 15.27 1.48 18.18 2.19c0 0-3.8 9.54-7.67 12-0.27 0.17-0.53 0.34-0.79 0.5-3.08 1.96-6.9 2.44-10.41 1.32z"/>
 <path class="st10" d="m634.09 964.61s1.35 12.5-3.01 16.67-13.76 6.5-16.59 7.35c0 0-1.61-10.21 0.44-14.32 0.14-0.28 0.28-0.56 0.41-0.84a12.2 12.2 0 0 1 8.19-6.45z"/>
 <path class="st11" d="m654.43 960.02s1.79 12.45-2.55 16.83-13.92 7.15-16.81 8.14c0 0-1.99-10.15-0.01-14.35 0.14-0.29 0.27-0.57 0.4-0.86 1.57-3.35 4.58-5.85 8.21-6.84z"/>
 <path class="st12" d="m674.75 954.4s2.11 12.4-2.19 16.92-13.94 7.59-16.85 8.67c0 0-2.25-10.09-0.35-14.36 0.13-0.29 0.26-0.58 0.38-0.87 1.51-3.4 4.5-6 8.16-7.1z"/>
 <path class="st10" d="m633.77 964.46s-3.64-12.03-9.28-14.17-15.2-0.6-18.15-0.29c0 0 2.51 10.03 6 13.01 0.24 0.2 0.47 0.41 0.71 0.61 2.77 2.37 6.47 3.37 10.06 2.73z"/>
 <path class="st10" d="m654.42 959.99s-4.32-11.81-10.07-13.62-15.21 0.25-18.14 0.74c0 0 3.07 9.87 6.72 12.65 0.25 0.19 0.5 0.38 0.74 0.57 2.9 2.21 6.65 3 10.2 2.16z"/>
 <path class="st10" d="m674.75 954.35s-4.99-11.54-10.84-13.02-15.17 1.13-18.06 1.79c0 0 3.63 9.68 7.44 12.24 0.26 0.18 0.52 0.35 0.77 0.53a12.22 12.22 0 0 0 10.31 1.57zm-54.02 13.13s-9.58 8.59-14.61 9.32c-5.89 0.86-12.56-5.35-12.56-5.35s4.64-7.89 10.19-8.7c5.38-0.77 16.98 4.73 16.98 4.73z"/>
 <path class="st12" d="m694.57 947.8s2.76 12.27-1.29 17.01-13.52 8.31-16.37 9.55c0 0-2.78-9.96-1.11-14.32 0.11-0.3 0.22-0.6 0.34-0.89 1.33-3.47 4.18-6.23 7.77-7.52z"/>
 <path class="st13" d="m694.37 947.87s-5.01-11.44-10.92-12.78-15.27 1.48-18.18 2.19c0 0 3.8 9.54 7.67 12 0.27 0.17 0.53 0.34 0.79 0.5 3.08 1.96 6.9 2.44 10.41 1.32z"/>
 <path class="st10" d="m483.87 966.64c-196.62-32.96-346.45-203.96-346.45-409.95 0-229.58 186.11-415.69 415.69-415.69s415.69 186.11 415.69 415.69c0 207.18-151.57 378.96-349.87 410.5"/>
 <path class="st14" d="m699.78 263.66c1.12-2.37 2.54-4.59 4.74-5.91 2.79-1.68 5.55-1.81 7.66-1.66m8.89 74.42c-9.97 3.96-21.13 7.23-33.05 8.83-4.19 0.56-4.23-5.15-3.02-10.11"/>
 <path d="m735.48 269.46c1.05-2.01 3.33-3.24 5.6-3.31s4.78 0.55 6.48 2.07c1.7 1.51 3.53 3.43 4.11 5.97 0.42 1.83 0.11 4.65-0.33 6.48" fill="none" stroke="#020203" stroke-miterlimit="10" stroke-width="1.1956"/>
 <path class="st1" d="m738.03 270.64c0.53-0.66 1.08-1.34 1.93-1.76 2.01-1 4.7 0.01 3.88 2.6-0.25 0.87-0.81 1.71-1.64 2.04 0.58-0.77 1.25-3.28 0.16-3.67-1.54-0.64-2.85 0.22-4.33 0.79zm5.98 4.31c0.65-0.7 0.44-1.59 0.95-2.57 0.5-1.15 2.19-1.32 3.13-0.57 0.99 0.78 1.17 2.03 0.95 3-0.23 1.01-0.8 1.79-1.43 2.47 0.2-0.92 0.49-1.79 0.51-2.59 0.13-1.53-1.27-2.95-2.38-1.81-0.5 0.6-0.81 1.83-1.73 2.07z"/>
 <path class="st16" d="m686.75 322.05c-4.48 4.54-7.54-2.17-5.28-4.18-3.51-1.79 3.41-7.32-0.44-7.32-3.89 0-2.52-6.47-1.45-7.15 2.56-1.62-3.06-6.4 1.88-8.83 1.55-0.76 1.5-0.48 1.69-3.37 0.32-4.98 11.51-4.32 8.34-5.03-4.44-0.99-2.4-5.42-0.74-4.56 3.14 1.64 5.25-0.97 5.25-1.75 0-2.45-1.24-3.99 1.77-4.55 0.85-0.16 2.02-1.55 1.14-3.69-0.82-1.98 1.11-3.55 2.22-3.16 1.69 0.6 1.61-7.28 5.77-4.57"/>
 <path class="st17" d="m686.2 294.73c0.44 0.32 0.95 0.85 1.29 1.14"/>
 <path class="st17" d="m688.25 313.17c-0.62-0.26-1.72-1.06-2.05-1.41-1-1.05-1.38-1.74-1.86-2.55-0.98-1.65-1.46-3.68-1.54-5.59-0.14-3.35 1.19-7.02 3.79-9.18-0.19 0.16 3.94-3.4 8.41-3.03"/>
 <path class="st17" d="m688.67 312.17c-0.7-0.62-1.67-1.27-2.67-2.6-1.16-1.53-1.46-3.68-1.54-5.59-0.14-3.34 1.67-7.42 4.06-8.95 2.4-1.53 3.24-2.1 6.12-2.27"/>
 <path class="st17" d="m683.77 308.36c0.35 0.03 1.27-0.29 1.65-0.49m-2.3-2.17c0.32-0.04 1.15-0.26 1.47-0.35m-1.47-4.49c0.29-0.03 1.16 0.13 1.46 0.24m-1.2-1.46c0.29 0.04 1.12 0.36 1.38 0.45m4.79 10.48a10.717 10.717 0 0 1-2.69-7.97c0.17-2.11 1.44-6.72 6.86-7.58"/>
 <path class="st17" d="m690.48 307.61c-1.52-1.49-1.6-2.73-1.18-4.82 0.64-3.18 1.69-4.61 3.98-5.5"/>
 <path class="st14" d="m685 329.23s1.25-4.96 4.51-18.82 4.88-14.91 7.67-22.87 6.54-19.44 10.64-24.94c2.7-3.62 8.22-4 13.25-1.84 17.84 8.19 30.99 20.79 46.39 33.01 3.15 2.5 2.05 6.39 0.21 8.62-1.29 1.57-18.23 16.19-43.47 26.83"/>
 <path class="st1" d="m704.59 321.18c10.3 2.2 20.92 1.49 30.84-2.05-8.94 5.87-21.2 6.67-30.84 2.05zm2.33-12.99c9.39 5.37 20.19 6.04 30.64 7.79-10.55 0.73-22.53-0.29-30.64-7.79z"/>
 <path class="st1" d="m714.7 292.62c2.98 13.13 1.14 27.47-5.1 39.4 3.91-12.78 5.64-26.03 5.1-39.4zm13.85 6.8c-0.53 10.96-5.13 21.81-12.64 29.81a95.91 95.91 0 0 0 12.64-29.81z"/>
 <path class="st14" d="m689.72 285.24-0.82 1.74m10.88-23.32-8.42 18.05m-10.19 40.04s-0.76 4.42-0.61 7.47c0.14 3.05 1.05 6.7 2.23 7.81s2.66 1.48 2.66 1.48"/>
 <path class="st16" d="m712.19 259.77c-1.93-6.02 3.18-5.12 4.44-3.09 0.48 0.78 2.39-2.52 4.59-1.02 0.85 0.58 2.51 3.74 4.11 2.58 1.17-0.85 0.14-2.18 0.56-3.07 0.92-1.98 4.15-0.97 5.76-0.28 3.27 1.39 1.56 2.81 1.11 5.6-0.1 0.62-0.83 2.99-0.26 3.51 1.21 1.1 3.11-1.18 3.18-2.02 0.12-1.43 5-3.98 10.08 1.58 0.9 0.98 0.39 1.79 1.97 2.21 0.9 0.24 2.07-0.81 3.12 0.45 0.78 0.94-0.08 2.54 1.41 2.81 0.94 0.17 1.94-1.22 3.18-0.97 1.66 0.33 1.46 1.05 1.87 2.26 0.14 0.41-0.12 0.9 0.13 1.45 0.18 0.4 1 0.29 1.25 0.96 0.37 1.02-0.39 2.11-0.34 3.14 0.06 1.13 0.64 1.83 0.4 3.06-0.21 1.06-1.57 2.27-0.33 3.19 1.42 1.05 2.02-0.81 2.19-1.86 0.25-1.48-0.41-1.95 1.16-2.68 1.02-0.47 1.99-0.39 2.77 0.53 1.22 1.44-1.35 5.24 0.68 6.01 1.16 0.43 1.93-1.35 2.97-0.83 1.05 0.53 0.43 2.22 0.42 2.96-0.01 0.57-0.56 0.64-0.43 1.24 0.12 0.57 1.32 0.91 1.4 1.67 0.16 1.45-3.16 2.71-4.28 2.87"/>
</svg>
